<?xml version="1.0" encoding="utf-8"?>
<!-- Generator: Adobe Illustrator 21.0.0, SVG Export Plug-In . SVG Version: 6.00 Build 0)  -->
<svg version="1.1" id="Layer_1" xmlns="http://www.w3.org/2000/svg" xmlns:xlink="http://www.w3.org/1999/xlink" x="0px" y="0px"
	 viewBox="0 0 641.4 116.5" style="enable-background:new 0 0 641.4 116.5;" xml:space="preserve">
<style type="text/css">
	.st0{fill:#FFD120;}
	.st1{fill:#212122;}
	.st2{fill:#FFFFFF;}
	.st3{fill:#ED207D;}
	.st4{fill:#414042;}
</style>
<g>
	<g>
		<g>
			<path class="st0" d="M13.4,76C7.9,76.2,5.6,76.6,0,78.8C5.2,77.7,10.4,78.6,13.4,76z"/>
			<path class="st0" d="M41.8,84.8c-6.2,0.6-10.7,1.3-16.3,3.5c-10.4,2.1,0,0,6.2-0.6c3.9-0.3,9.4,1.4,10.7-1.3
				C37.1,87.4,39.8,85.9,41.8,84.8z"/>
			<path class="st0" d="M369.6,12.3c-0.2,0.1-0.4,0.1-0.6,0.1C369.2,12.4,369.4,12.4,369.6,12.3z"/>
			<path class="st0" d="M634.5,17.5c1.6,0,5.5-0.3,6.8-1c-4.5-1.3-5.1-4.8-8.9-6.4c-1.6,0-0.4,3.1-2,3.1c-11-1.4-22.3-5.6-32.7-5.4
				c6.8,0.9,14.6,2.3,18.4,3.9c-18.5-2-31.5-0.4-48.6-3.1c-7.5,1.4-14,1.2-24.4,3.3c11.4,0.3,24-0.2,35.7,0.9
				c11.4,0.3,21.7,2.1,28.4,6.9c-2.6-0.5-4.8-2.1-6.8-0.9c3.9,1.6,9.4,1.4,13.2,3c0.1-3.9,9.1-1.3,12.1-2c-0.6-3.5-5.7-4.4-3.1-5.9
				c3.7,0.4,7.4,0.9,7.1,2.2c0.6-0.8,1.6-1.2,2.9-1.2C633.9,15.9,636.5,16.3,634.5,17.5z"/>
			<path class="st0" d="M150.9,59.5C149.2,59.4,148.9,60.6,150.9,59.5L150.9,59.5z"/>
			<path class="st0" d="M214,97.4C214,97.4,214,97.4,214,97.4C213.7,97.6,213.8,97.5,214,97.4z"/>
			<path class="st0" d="M629.7,15.9c-0.2,0.2-0.3,0.4-0.4,0.7C629.6,16.3,629.7,16.1,629.7,15.9z"/>
			<path class="st0" d="M557.7,12.1c-4.2-0.5-6.2,0.6-10.4,0.1c-0.7,2.3,3.2,0.1,2.2,1.6c-12.7,0.8-29.4-1.3-43.9-2.5
				c0.6,0,1.1-0.1,1.1-0.1c-0.8,0-1.5,0-2.3,0c-0.3,0-0.7-0.1-1-0.1c0.1,0,0.2,0.1,0.3,0.1c-11.1,0-22.1-0.4-29.5,1.2
				c8.8-0.2,19.8,1.2,24,1.7c-5.9,1.4-18.2,0.7-25.7,0.2c0.6,1.6-2,1.1-3.3,1.9c-4.5-1.3-25.4,0.9-32.1-1.9
				c-9.5,2.5-26-0.6-34.4,0.3c3.2,0.1,5.8,0.5,7.8,1.4c-13.6,0.1-24.3-0.6-36.4-0.5c-9.1-0.6-18.9,1.1-27.2-1.8
				c7.9-1.7,15.2,0.6,22.2-1.3c-0.6,0-1.1-0.4-1.3-1c13.6-0.1,19.2-0.3,27.6,0.7c-11.9-3.8-35.4-0.1-47-3.1
				c-0.4,1.2-2.9,0.7-4.3,1.5c9.1,0.6,15.3,0,23,1.3c-8.8,0.2-20.8,0.3-32.2,0c-11.4-0.3-23.4-0.2-33.8,1.9c0.4-1.2,1.3-0.7-0.3-0.8
				c-8.8,0.2-12.7,0.5-20.5,1.1c-11.2,6.3-36.2,8.1-52.2,8.5c2.9-0.7,8.1,0.2,7.9-2.5c-12,0.1-23.8,4.9-34.9,5.4
				c1.9,0.8,5.5-0.3,5.8,0.5c-21.8,1.8-32.3,3.9-44.6,5.1c-2.6-0.5-12.4,1.3-4.6,0.7c3.2,0.1,9.1-1.3,11.7-0.9
				c-13.4,2.8-22.2,3-33,6.2c3.9-0.3-0.7,0.4-0.4,1.2c15-0.8,28-2.4,39.7-1.4c-2.8,0.7-10.9,0.9-10.5,1.9c-8.2,1-16.5,2.1-24.3,3.5
				c-13,1.6-25.1,3.7-34.9,5.4c0,0-10.7,1.3-6.5,1.8c17.9,0.4,44.3-5.9,64.5-9.7c-2,3.1,1.6,0,2.5,2.4c6.2-2.6,14.7-1.6,23.4-1.8
				c-14.3,2.4-33.8,1.9-45.3,5.5c3.6-1.1,6.8-1,8.8-0.2c-7.5,1.4-13.3,0.8-15.7,3.1c10.4-0.1,21.5-2.6,32.2-1.9
				c-7.2,0.2-13,1.6-2.3,0.3c9.4-0.6,20.5-3,26.3-0.5c-11.4,1.7-25.4,0.9-33.2,3.5c1.6,0,2.6,0.5,1.9,0.8c-3.2-0.1-11.1,2.5-8.2,1.7
				c6.8,0.9,14.3-2.4,22.8-1.4c-10.4,2.1-21.1,1.4-28.7,4.7c2.3-0.3,5.9-1.4,6.2-0.6c-2.9,0.7-5.9,1.4-6.5,1.8
				c7.5-1.4,19.8-0.7,25.1-3.7c-0.7,0.4-8.2,1.7-11.7,0.9c7.5-1.4,17.6-4.2,24.7-2.5c-3.6,1.1-8.1-0.2-11.4,1.7c1.6,0,5.2-1,4.2,0.5
				c-2.6,1.5-4.5-1.3-4.3,1.5c4.6-0.7,9.8-1.7,11.7-0.9c-4.6,0.7-9.1,1.3-12.1,2c-1.6,0-1.3-1.2-2.6-0.5c-4.3,1.5-10.1,0.9-12.7,2.4
				l-8.5,1l5.5-0.3c9.4-0.6,21.2-3.4,27.6-1.3c-2.3,0.3-5.8-0.5-6.2,0.6c10.7,0.6,24.4-1.4,33.5-0.8c-16,4.3-31.5,1.6-44,6.7
				c2.6-1.5-2,1.1-1.9-0.8c0.4-1.2,4.9,0.1,4.3-1.4c-5.8-0.5-8.2,3.7-11.7,0.9c-4.4,5.3-21.9,3.7-31.3,6.2
				c-3.6,1.1-9.5,4.4-14.7,3.5c0.7-0.4,5.9-1.4,4-2.2c-3.6,1.1-4.6,2.6-9.5,2.5c0.7-0.4,1.3-0.7,2-1.1c-16.6,2.7-53.8,6.5-66.5,8.9
				c-9.5,2.5,5.8,0.5,9.7,0.2c0,0-0.7,0.4-0.4,1.2c24.5-5.2,49.5-7,65.1-6.2c10.8-3.2,23.1-2.6,31.9-2.7c-4.6,2.6-22.8,1.4-18.3,2.7
				c-8.1-0.2-22.5,2.2-25.4,2.9c2.2,1.6,9.1-1.3,11.1-0.5c-23.5,3.7-39.4,4.1-58,7.9c-1.3,0.7,0.3,0.8-1,1.5c-5.5,0.3-3.3,1.9,1,0.4
				c16.3-3.5,36.5-5.3,51.1-5c-3,2.6-15,2.7-22.5,4.1c-3.9,0.3,1,0.4,2.3-0.3c5.2,0.9,19.2-2.3,25.4-0.9c-1.6,0-4.9-0.1-5.2,1
				c3.9-0.3,7.2-0.2,8.8-0.2c-2.3,2.3-11.5,3.6-3.6,1.1c-4.9,1.8-11.4-0.3-13,1.6c4.9,0.1,3.9-0.3,8.1,0.2c-1.3,0.7-7.5,1.4-4.9,1.8
				c2.9-0.7,6.5-1.8,10.4-2.1c7.5,0.6,41.7-4.4,54.3-3c-11.4,1.7-25.4,2.9-32.6,5c6.5,0.2-2.6,1.5-2.3,2.3c3.9-0.3,8.5-1,10.4-0.1
				c-13.7,2-27.7,3.2-41.4,5.2c-2,1.1,4.6-0.7,6.2-0.6c16.9,0,43.7-7.5,56.9-4.5c3.3-1.9,7.2-0.2,9.7,0.2c-6.5,1.8-15,0.8-21.5,2.6
				c-4.9,1.8,7.2-0.2,7.8-0.6c7.5,0.6,19.1,1.6,26,0.6c-5.2,1-10.8,1.3-18.6,1.9c-3.2-0.1-8.2,1.7-2,1.1l10.7-1.3
				c8.7,1.8,31.9-4.7,38-1.4c-0.7-0.3-1.8,0.2-2.2,0.3c4.9,0.1,10.7-1.3,13.9,0.7c-8.1-0.2-19.2,2.3-22.4,0.2
				c-2.9,0.7-6.5,1.8-8.2,3.7c-4.2-0.5-18.2,0.7-22.8,1.4c1,0.4,3.6-1.1,2.9,1.2c-9.1-0.6-21.5,0.7-33.9,3.8
				c12-0.1,26.1-3.3,36.8-2.6c-13.7,2-30.3,2.8-37.5,6.9c6.5,0.2,11.4-1.7,16.9-1.9c0.3,0.8-0.4,1.2,1.9,0.8
				c12-0.1,17.9-3.5,27.3-2.1c-2.3,0.3-5.2,1-6.5,1.8c5.5-0.3,9.8-1.7,12.4-1.3c-2,1.1-10.4,2.1-10.1,2.9c3.6-1.1,8.8-0.2,10.7-1.3
				c0,0-0.4,1.2,1.3,1.2c7.5-1.4,19.9-2.6,28-2.4c34.8-1.5,71.9-3.3,108.2-2.8c8.1,0.2,15.9-0.4,24-0.2c58.8,0.2,118.7-4.9,179.3,0
				c-0.4,1.2-1.3,0.7,0,1.9c18.2,1.2,44.7,3.4,60,5.3c0,0-2.9-1.2-1.3-1.2c11,1.4,7.9-6.4,19-5c-2.4-6.3,1.3-13.2,11.4-14.1
				c-0.3-0.8-3.6-0.9-3.2-2c11.5-5.5,2.6-12,7.6-19.6c-4.2-2.4-0.5-5.4-5.3-7.5c2.3-0.3,5.5-0.3,6.5-1.8c-2.6-0.5-3.6-0.9-4.8-2.1
				c2.3-2.3,0.4-5,2.7-5.4c0.7-2.3-3.9-1.6-4.2-2.4c3.9-0.3,1.5-6.6,6.6-5.7c-1.9-2.8,0.1-3.9-2.8-5.1c6.3-6.4-4.9-12.5-1.9-17.1
				c3.9,1.6,1,0.4,4.2,0.5c-3.9-1.6-10.7-2.6-13.9-4.6c-1-0.4-1.9-0.8-3.2-0.1c-20.7-1.7-37.2-6.7-59.6-8.4
				C554.7,12.8,557.3,13.3,557.7,12.1z M170.7,38c3-0.5,6.1-1.1,7.7-0.8C175.8,37.5,173.2,37.8,170.7,38z"/>
			<path class="st0" d="M16.5,96.2c5.6-2.2,15.3-2,14.4-4.3C26.3,94.5,18.8,94,16.5,96.2z"/>
			<path class="st0" d="M117.5,40c2.9-0.7,6.2-0.6,7.2-2.2C121.8,38.6,118.8,39.3,117.5,40z"/>
			<path class="st0" d="M135.5,34.6c3.6-1.1,10.1-0.9,12.7-2.4C144,33.7,138.2,33.1,135.5,34.6z"/>
			<path class="st0" d="M128.1,60.9c2.6-1.5,5.6-2.2,7.2-4.1c-2,1.1-9.8,1.7-8.5,2.9c0.7-0.4,2.9-0.7,3.2,0.1
				C128.4,59.7,127.1,60.4,128.1,60.9z"/>
			<path class="st0" d="M76.1,88.3c2.9-0.7,5.8,0.5,7.5-1.4C82.6,86.6,73.5,87.9,76.1,88.3z"/>
			<path class="st0" d="M130.7,61.3c-2.6,1.5-9.4,0.5-12.4,3.2C122.2,64.2,131.6,63.7,130.7,61.3z"/>
			<path class="st0" d="M81.8,92.7c2.3-0.3,8.8-0.2,11.4-1.7C90.7,90.6,83.5,90.8,81.8,92.7z"/>
			<path class="st0" d="M138.7,65.4c-3.6,1.1-9.8,1.7-12.4,3.2C130.8,67.9,138.3,66.5,138.7,65.4z"/>
			<path class="st0" d="M140.6,66.2l2.3-0.3C154.3,64.2,144.3,63.2,140.6,66.2z"/>
			<path class="st0" d="M156.6,61.9c0.4-1.2,4.6-0.7,4.6-2.6l-5.2,1C156.3,61.1,155,61.9,156.6,61.9z"/>
			<path class="st0" d="M251.9,17.6c-4.6,0.7-10.1,0.9-11.5,3.6C243.7,19.4,252.2,20.3,251.9,17.6z"/>
			<path class="st0" d="M113.6,95.8c-5.5,0.3-8.8,2.1-1.3,0.7c3.6-1.1,9.4-0.6,11.1-2.5c-2,1.1-2.9-1.2-3.2-0.1c1,0.4,1,0.4,1,0.4
				C119.2,93.6,116.5,95.1,113.6,95.8z"/>
			<path class="st0" d="M266.3,11.4c0.3,0.8-0.4,1.2-0.7,2.3c2.9-0.7,6.3-4.5,10.1-2.9c-1-0.4-2.9,0.7-2.9,0.7
				c5.8,0.5,14-1.2,13.3,1.1c2-1.1,6.8-1,8.2-1.7c-1.6,0,0.7-0.4,1-1.5c-5.9,1.4-11.4,1.7-15.6,1.2c0.7-0.4,1.6,0,2-1.1
				C274.5,9.6,249.7,14.1,266.3,11.4z"/>
			<path class="st0" d="M82.3,116.4c1,0.4,6.5-1.8,9.4-0.6C91.7,113.9,83.6,115.7,82.3,116.4z"/>
			<path class="st0" d="M277.6,13.6c-6.8,1-17.9,1.5-17.7,6.2C263.9,17.5,278,14.4,277.6,13.6z"/>
			<path class="st0" d="M310.6,9.3c4.2,0.5,18.9-1.1,7.8-0.6c-2.6-0.5-6.2,0.6-8.4-1c-3.6,1.1-11.4-0.3-12.4,3.2
				C300.2,9.5,314.7,11.7,310.6,9.3z"/>
			<path class="st0" d="M138.9,109.2c2.9-0.7,7.9-2.5,6.9-2.9c-1.3,0.7-5.5,0.3-5.9,1.4C140.9,108.1,139.3,108.1,138.9,109.2z"/>
			<path class="st0" d="M166.4,103.3c-4.6,0.7-10.7,1.3-13.4,2.8C157.6,105.4,162.8,104.4,166.4,103.3z"/>
			<path class="st0" d="M389.4,13.5c-1.6,0-2.9-1.2-3.9,0.3c1.3,1.2,2.3-0.3,2.6,0.5l7.2-0.2C394.9,13.3,391,13.6,389.4,13.5z"/>
			<path class="st0" d="M405.4,11.2c-4.2-0.5-6.1-1.3-8.8,0.2C399.5,10.7,404,11.9,405.4,11.2z"/>
			<path class="st0" d="M441,1.6c2-1.1-6.8-0.9-9.1-0.6c-0.3-0.8-0.3-0.8-1-0.4C430.9,2.5,437.4,0.7,441,1.6z"/>
			<path class="st0" d="M425.8,12.1c-0.5,0-1.2,0.1-1.9,0.1C425.1,12.3,425.9,12.3,425.8,12.1z"/>
			<path class="st0" d="M436.5,12.7l10.4-0.1C445,11.8,439.8,12.8,436.5,12.7z"/>
			<path class="st0" d="M423.9,12.2c-0.7-0.1-1.5-0.2-2.3-0.3C421.8,12.3,422.8,12.3,423.9,12.2z"/>
			<path class="st0" d="M421.6,11.9c0-0.1-0.1-0.2,0-0.3c4.6,0.1,8.7-1.2,10.4,0.4c-0.8-0.3-2.8,0.2-2,0.6c2.6,0.5,3.6-1.1,6.5,0.2
				c1.1-3.5-3.9,0.3-3.2-2c0.3,0.8,1,0.4,0.7-0.4c-6.2,0.6-14.6-0.4-17.9,1.5C417.4,11.5,419.6,11.7,421.6,11.9z"/>
			<path class="st0" d="M433.7,7.6c-3.9,0.3-6.1-1.3-7.8,0.6C428.2,7.9,432.7,9.1,433.7,7.6z"/>
			<path class="st0" d="M464.1,11.4c-1-0.4-9.7-2.2-14-0.7C455.4,11.6,459.2,13.3,464.1,11.4z"/>
			<path class="st0" d="M465.1,13.8c-2.9,0.7-5.5,0.3-6.8,1C461.5,14.9,464.1,15.3,465.1,13.8z"/>
			<path class="st0" d="M497.8,2.9c-0.6-1.6-14.9-1.1-14.6-0.4C488.1,2.7,494.3,2.1,497.8,2.9z"/>
			<path class="st0" d="M513.7,4.5c-0.4,1.2-11.4-0.3-9.1,1.3C505.9,5.1,516.2,6.9,513.7,4.5z"/>
			<path class="st0" d="M516.6,5.7c-1.7,1.9,6.2-0.6,6.1,1.3c-1.3,0.7-7.5-0.6-4.6,0.7c6.5,0.2,22.1,0.9,21.8,0.1
				c-1.6,0-5.2,1-5.2-0.9c2-1.1,4.6-0.7,6.8-1c-2.5-2.4-5.2,1-7.5-0.6c-0.6-1.6,4.2,0.5,3.6-1.1c-8.1-0.2-15.6-0.8-22.4,0.2
				c2.6,0.5,5.8,0.5,7.8,1.4L516.6,5.7z"/>
			<path class="st0" d="M540.8,10.2c-9.1,1.3-19.8-1.2-25.7,0.2C525.9,11,532,12.3,540.8,10.2z"/>
			<path class="st0" d="M557.8,6.3c-4.9-0.1-12.6-1.5-15,0.8C547.7,7.2,554.2,7.4,557.8,6.3z"/>
			<path class="st0" d="M574.7,6.3c-1.6-2-15.2-1.9-13.3-1.1C564.7,5.3,570.2,5,574.7,6.3z"/>
			<path class="st0" d="M568.8,7.7c-0.7,0.4-1.3,0.7-1.3,0.7C568.2,8.1,569.1,8.5,568.8,7.7z"/>
			<path class="st0" d="M569.8,8.1c2.3-0.3,6.8,0.9,8.1,0.2C575.3,7.9,570.8,6.6,569.8,8.1z"/>
			<path class="st0" d="M616.6,4.6c-5.5-1.7-9.3-3.3-13.9-4.6c-1,1.5-1.7,1.9-1.1,3.5C607.9,2.8,614,6.1,616.6,4.6z"/>
		</g>
	</g>
	<g>
		<g>
			<g id="XMLID_243_">
				<path id="XMLID_255_" class="st1" d="M240.9,79.9c-1.6,2-3.4,3.8-5.5,5.4c-2.1,1.6-4.2,2.9-6.5,4.1s-4.6,2-6.9,2.7
					c-2.4,0.7-4.6,1.1-6.8,1.2c-2.7,0.2-5.6,0-8.6-0.7c-3-0.7-5.8-1.9-8.2-3.7c-2.5-1.8-4.6-4.2-6.2-7.2c-1.7-3-2.5-6.7-2.6-11.2
					c-0.1-3.9,0.6-7.9,2.2-12c1.6-4.1,4-7.9,7.1-11.3c3.1-3.5,6.9-6.4,11.3-8.9c4.4-2.5,9.4-4.1,15-4.9c5.9-0.8,10.4-0.4,13.4,1
					c3.1,1.4,5,3.3,5.8,5.7c0.8,2.4,0.6,5-0.6,7.8c-1.2,2.8-3.1,5.2-5.7,7.2c-2.6,2-5.8,3.3-9.6,3.8c-3.8,0.6-7.9-0.2-12.3-2.2
					c2.5,0.5,4.9,0.3,7.1-0.7c2.3-1,4.2-2.3,5.8-4c1.6-1.7,2.9-3.6,3.8-5.6c0.9-2,1.3-3.9,1.1-5.5c-0.2-1.7-0.9-2.9-2.2-3.8
					c-1.3-0.9-3.4-1-6.2-0.4c-3.8,0.8-7.2,2.4-10.2,4.7c-2.9,2.3-5.4,5-7.5,8.1c-2,3.1-3.6,6.4-4.6,10c-1.1,3.6-1.6,7.1-1.6,10.4
					c0,3.6,0.3,6.7,1,9.3c0.7,2.6,1.6,4.6,2.8,6.2c1.2,1.6,2.6,2.7,4.2,3.4c1.6,0.7,3.3,1.1,5.1,1.1c3.2,0,6.8-1,10.9-3
					c4.1-2,8.1-4.9,11.9-8.6c2.6-2.8,5.1-5.8,7.6-9.1c0,0.1,0.1,0.2,0.3,0.5c0.2,0.3,0.4,0.6,0.5,1.1c0.1,0.5,0.1,1,0.1,1.6
					c-0.1,0.6-0.4,1.2-0.9,1.9c-0.8,1.1-1.6,2.1-2.3,3C242.5,78.2,241.7,79,240.9,79.9z"/>
				<path id="XMLID_253_" class="st1" d="M253.3,70.9l5.9-8.5c0.1-0.2,0.4-0.5,0.9-1.2c0.5-0.6,1.1-1.3,1.9-2
					c0.7-0.7,1.5-1.3,2.5-1.8c0.9-0.5,1.9-0.8,2.9-0.7c1.4,0.1,2.3,0.4,2.8,0.9c0.5,0.5,0.9,1.1,1,1.7c0.1,0.8,0.1,1.8-0.2,3.2
					c-0.3,1.4-0.7,2.8-1.2,4.3c-0.5,1.5-1,3.1-1.4,4.6c-0.5,1.5-0.8,2.8-0.9,3.8c-0.5,2.1-0.5,3.4,0.1,3.8c0.6,0.4,1.4,0.2,2.7-0.6
					c1.2-0.8,2.6-2,4.2-3.7c1.6-1.7,3.2-3.6,4.8-5.6c0,0.1,0.1,0.2,0.3,0.5c0.2,0.3,0.4,0.6,0.5,1.1c0.1,0.5,0.1,1,0.1,1.6
					c-0.1,0.6-0.4,1.2-0.9,1.9c-2.1,2.6-4.3,4.8-6.7,6.5s-5.1,2.5-8.3,2.5c-1.5,0-2.9-0.4-4.1-1.1c-1.2-0.7-2-1.9-2.2-3.6
					c0-0.5,0.1-1.1,0.2-1.9c0.1-0.8,0.4-1.7,0.7-2.7c0.3-0.9,0.6-1.9,0.9-2.9c0.3-1,0.6-1.9,0.8-2.7c0.4-1.1,0.4-1.7,0.2-1.8
					c-0.3,0-0.6,0.2-1.1,0.6c-0.5,0.5-1,1-1.5,1.7c-0.5,0.7-0.9,1.2-1.1,1.6c-0.7,1.3-1.6,2.8-2.8,4.6c-1.2,1.8-2.2,3.4-3,4.8
					l-0.7,2.6c-0.9,3.3-1.9,5.4-2.9,6.2c-1.1,0.8-2.4,1.2-4.2,1.1c-1.1-0.1-2-0.5-2.7-1.1c-0.6-0.7-0.8-1.7-0.5-2.9
					c0.4-1.8,0.8-3.8,1.4-6c0.5-2.2,1.1-4.5,1.9-6.9c0.7-2.4,1.5-4.8,2.3-7.2c0.8-2.4,1.7-4.6,2.7-6.8c0.4-0.9,1-1.5,2-1.9
					c0.9-0.3,1.9-0.5,2.9-0.4c1,0.1,1.9,0.3,2.6,0.6c0.7,0.3,1,0.6,1,0.9L253.3,70.9z"/>
				<path id="XMLID_250_" class="st1" d="M305.9,60.3c0.3,1.6-0.2,2.9-1.6,4.1c0.6,0.2,1.1,0.3,1.5,0.5c0.4,0.2,0.5,0.3,0.5,0.5
					c-0.6,2.8-1.4,5.5-2.3,8c-0.9,2.6-1.7,5.2-2.3,7.8c-0.5,2.1-0.5,3.1,0.1,3c0.6-0.1,1.5-0.8,2.8-2.3c1.3-1.4,2.8-3.3,4.6-5.6
					c1.8-2.3,3.6-4.6,5.5-7.1c0,0.1,0.1,0.2,0.3,0.5c0.2,0.3,0.4,0.6,0.6,1.1c0.1,0.5,0.2,1,0.1,1.6c-0.1,0.6-0.4,1.2-1,1.9
					c-1.5,1.8-2.8,3.4-4,4.8c-1.1,1.4-2.2,2.7-3.3,3.8c-1.1,1.1-2.1,2.2-3.2,3.2c-1.1,1-2.4,2-3.8,2.9c-0.8,0.6-1.6,1-2.5,1.1
					c-0.9,0.1-1.8,0.1-2.7-0.1c-0.9-0.2-1.6-0.5-2.3-1c-0.6-0.5-1-1-1.2-1.6c-0.2-0.5-0.2-1.1-0.2-1.7c0-0.6,0.1-1.2,0.2-1.9
					c-1.7,1.6-3.5,3-5.4,4.3c-2,1.3-3.8,1.9-5.5,1.9c-1.7,0-3-0.3-4-1c-1-0.7-1.6-1.5-1.9-2.6c-0.8-2.6-0.7-5.6,0.1-9
					c0.8-3.5,2.3-6.8,4.3-9.9c2.1-3.1,4.7-5.8,7.9-7.9c3.2-2.1,6.8-3.2,10.8-3.1c1.9,0,3.6,0.3,5.1,0.9
					C304.7,58.1,305.6,59,305.9,60.3z M293.2,65.7c2-0.4,3.5-1,4.6-1.8c1.1-0.8,1.8-1.8,2.1-2.9c0.1-0.5-0.1-0.9-0.6-1.5
					c-0.5-0.5-1.3-0.6-2.5-0.2c-1.7,0.5-3.3,1.8-4.8,4c-1.5,2.2-2.9,4.7-4.1,7.3c-1.2,2.7-2.1,5.3-2.7,7.8c-0.6,2.6-0.8,4.4-0.6,5.6
					c0.1,0.6,0.4,0.8,1.1,0.7c0.6-0.1,1.4-0.5,2.1-1c0.8-0.6,1.6-1.2,2.5-2c0.9-0.8,1.6-1.6,2.3-2.4c0.5-2.1,1.1-4.3,1.8-6.4
					c0.7-2.2,1.3-4.2,1.9-6.1C295,66.9,293.9,66.5,293.2,65.7z"/>
				<path id="XMLID_248_" class="st1" d="M332.2,41.5c1.8-0.1,3.5,0.2,5,0.9c1.5,0.7,2.4,1.7,2.6,3.2c0.2,1.1,0.1,2-0.5,2.8
					c-0.6,0.8-1.4,1.4-2.4,1.9c-1.1,0.5-2.2,0.7-3.6,0.8c-1.3,0.1-2.6,0-3.9-0.3c2-0.4,3.3-1,4-1.9c0.7-0.9,1.1-1.8,1.3-2.6
					c0.1-0.8-0.1-1.4-0.5-1.8c-0.4-0.5-0.9-0.7-1.5-0.6c-0.6,0-1.3,0.4-2,1.1c-0.8,0.7-1.4,1.9-1.9,3.4c-0.6,1.7-1.2,3.6-1.9,5.5
					c-0.7,2-1.3,3.8-1.8,5.5l-6.6,23.8c2.9-0.8,5.8-2.3,8.8-4.4c3-2.1,6.1-5.3,9.3-9.6c0,0.1,0.1,0.2,0.3,0.5
					c0.2,0.3,0.4,0.6,0.6,1.1c0.1,0.5,0.2,1,0.1,1.6c-0.1,0.6-0.5,1.3-1.1,2c-2.4,3.3-5.3,6-8.8,8c-3.4,2-6.8,3.4-10.1,4.2
					l-3.4,12.4c-0.5,1.6-0.9,2.9-1.5,3.9c-0.5,1-1.1,1.8-1.7,2.3c-0.6,0.5-1.2,0.9-1.9,1c-0.6,0.1-1.3,0.2-2,0.2
					c-1.5-0.1-2.6-0.5-3.2-1.4c-0.6-0.8-0.6-2-0.1-3.5l4.4-14.5c-0.8-0.4-1.2-0.9-1.1-1.6c0.1-0.7,0.8-1.1,2-1.3l9.6-32.2
					c1-3.3,2.5-5.9,4.5-7.7C325.5,42.6,328.4,41.6,332.2,41.5z"/>
				<path id="XMLID_246_" class="st1" d="M350.3,50.2h5.6c0.8-0.1,1.4,0,1.8,0.2c0.4,0.2,0.5,0.5,0.5,0.8c-0.1,0.3-0.3,0.6-0.8,0.8
					c-0.5,0.3-1.1,0.4-2,0.5h-5.8l-8,28.6c-0.5,2.1-0.5,3.1,0.1,3c0.6-0.1,1.6-0.8,2.9-2.3c1.3-1.4,2.9-3.3,4.7-5.6
					c1.8-2.3,3.7-4.6,5.6-7.1c0,0.1,0.1,0.2,0.3,0.5c0.2,0.3,0.4,0.6,0.6,1.1c0.2,0.5,0.2,1,0.1,1.6c-0.1,0.6-0.4,1.2-1,1.9
					c-1.5,1.8-2.8,3.4-4,4.8c-1.1,1.4-2.2,2.7-3.3,3.8c-1.1,1.1-2.1,2.2-3.2,3.2c-1.1,1-2.4,2-3.8,2.9c-0.8,0.6-1.7,0.9-2.7,1
					c-1.1,0.1-2,0-2.9-0.3c-0.9-0.3-1.7-0.8-2.3-1.5c-0.6-0.7-0.9-1.5-0.8-2.4c0.2-1.7,0.4-3.5,0.8-5.4c0.4-1.9,0.9-3.9,1.5-6.1
					c1.1-3.7,2.2-7.5,3.3-11.3c1.2-3.8,2.3-7.3,3.3-10.5H340c-1.5,0-2.3-0.4-2.4-1.1c-0.1-0.8,0.9-1.2,2.8-1.2h1.1
					c0.7-2.1,1.4-3.9,2-5.4c0.4-0.9,1.1-1.5,2-1.8c1-0.3,2-0.4,2.9-0.4c1,0,1.8,0.2,2.5,0.5c0.7,0.3,1,0.6,1,0.9L350.3,50.2z"/>
				<path id="XMLID_244_" class="st1" d="M358.3,85.1c0.3,0.8,0.8,1.4,1.5,1.8c0.7,0.4,1.4,0.6,2,0.6c1.3,0.1,2.4-0.2,3.3-0.8
					c0.9-0.6,1.5-1.2,1.9-1.9c0.8-1,0.9-1.9,0.3-2.8c-0.5-0.9-1.4-1.8-2.5-2.7c-1.1-0.9-2.5-1.8-4-2.8c-1.5-0.9-3-1.9-4.2-2.9
					c-1.3-1-2.3-2.1-3-3.2c-0.8-1.1-0.9-2.4-0.6-3.7c0.8-2.9,2.6-5.3,5.3-7.2c2.7-1.8,6.1-2.8,10.3-2.9c3.8-0.1,6.7,0.4,8.7,1.5
					c2,1.1,3.3,2.7,4,4.8c0.5,1.7,0.2,3.3-0.8,4.6c-1,1.4-2.3,2.4-4,3.2c-1.6,0.8-3.4,1.1-5.2,0.9c-1.8-0.1-3.4-0.9-4.6-2.3
					c2-0.4,3.5-1.3,4.6-2.9c1.1-1.5,1.8-3.1,2-4.6c0.1-1.4-0.3-2.2-1-2.4c-0.8-0.2-1.7,0-2.8,0.5c-1.1,0.5-2.2,1.3-3.3,2.2
					c-1.1,0.9-2,1.8-2.5,2.5c-0.8,1.1-1.1,2-0.8,2.8c0.3,0.8,0.8,1.6,1.8,2.3c0.9,0.7,2,1.4,3.3,2.1c1.3,0.7,2.5,1.5,3.7,2.3
					c1.2,0.8,2.3,1.8,3.2,2.8c0.9,1.1,1.4,2.3,1.5,3.6c0.2,2.6-0.8,4.9-3.2,6.7c-2.4,1.8-5.7,2.8-10.1,2.8c-2,0-3.9-0.2-5.5-0.6
					c-1.7-0.4-3-1-4.2-1.8c-1.1-0.8-1.9-1.7-2.4-2.8c-0.5-1.1-0.5-2.1-0.2-3.3c0.3-1.1,1-2.1,2.1-2.8c1.1-0.8,2.3-1.2,3.7-1.4
					c1.4-0.2,2.8-0.1,4.3,0.4c1.5,0.5,2.7,1.3,3.8,2.6c-2,0.4-3.6,1-4.8,1.8C358.4,83,358,83.9,358.3,85.1z"/>
			</g>
			<g id="XMLID_225_">
				<path id="XMLID_241_" class="st1" d="M404,65.7l1.9-2.1h2.8l3.3-16.7c-3.6,0-6.5,1-8.7,2.9c-2.2,1.9-3.3,4.4-3.3,7.5l0,0.6
					l-5.1,2.5c0.5-5.4,2.5-9.3,6.2-11.8c3.7-2.5,9.3-3.7,16.8-3.7H433l-2.4,7.4h-1.7c0.2-0.7,0.3-1.4,0.3-2.1
					c0-2.3-3.6-3.4-10.7-3.4h-1.1l-3.3,16.8h11.4l-2.6,2.7c-2.8-0.4-5.4-0.6-8-0.6h-1.3l-1.5,7.7c-1.3,6.5-3.7,11.6-7.4,15.5
					c-3.7,3.9-7.9,5.8-12.8,5.8c-2.6,0-5-1-7-3l3.8-3.9c1.4,2.9,3.6,4.3,6.6,4.3c2.8,0,5-1.3,6.6-3.8c1.6-2.5,3-7,4.3-13.4l1.8-9.2
					H404z"/>
				<path id="XMLID_238_" class="st1" d="M439.3,84.2c-2.3,0-4.2-0.9-5.7-2.7c-1.5-1.8-2.3-4-2.3-6.7c0-5,1.9-9.7,5.7-13.9
					c3.8-4.3,7.9-6.4,12.4-6.4c2.4,0,4.4,0.9,6,2.6c1.6,1.7,2.4,4,2.4,6.7c0,5.2-1.9,9.9-5.7,14.1C448.3,82.2,444,84.2,439.3,84.2z
					 M442.3,82c2.6,0,4.9-1.7,6.8-5c2-3.3,2.9-7.2,2.9-11.6c0-5.8-1.8-8.7-5.3-8.7c-2.5,0-4.7,1.7-6.7,5.1c-2,3.4-3,7.3-3,11.6
					C437,79.1,438.8,82,442.3,82z"/>
				<path id="XMLID_236_" class="st1" d="M464.6,83.9l1.9-8l2.5-12.8c0.3-1.3,0.4-2.4,0.4-3.3c0-1.5-0.5-2.2-1.6-2.2
					c-1.8,0-4.5,2-7.9,5.9l0.5-2.3c4-4.3,7.5-6.5,10.5-6.5c2.5,0,3.8,1.4,3.8,4.3c0,1.3-0.2,2.7-0.5,4.2l-1.3,6.3h0.3
					c2.1-4.4,4.5-7.9,7.4-10.7c2.8-2.8,5.4-4.2,7.8-4.2c1.2,0,2.3,0.3,3.3,0.8l-3.5,4.7c-1-0.7-1.9-1-2.6-1c-3.4,0-7.9,5-13.6,15
					l-1.9,9.5L464.6,83.9z"/>
				<path id="XMLID_233_" class="st1" d="M515.6,76.4l-0.4,2c-5.5,3.9-10.3,5.8-14.2,5.8c-2.5,0-4.5-0.9-6-2.6
					c-1.5-1.7-2.3-4-2.3-6.7c0-4.9,1.9-9.5,5.7-13.9c3.8-4.3,7.8-6.5,12.1-6.5c1.6,0,2.8,0.5,3.8,1.6c1,1,1.4,2.4,1.4,4.1
					c0,3.3-1.7,6.2-5.1,8.6c-3.4,2.4-7.5,3.6-12.2,3.6l0,1.2c0,5.1,1.9,7.6,5.6,7.6C507,81.2,511,79.6,515.6,76.4z M498.3,70.8
					c3.9-0.3,7-1.3,9.2-3c2.2-1.7,3.3-3.9,3.3-6.6c0-2.7-1-4-2.9-4c-2.1,0-4.1,1.4-6.1,4.2C499.8,64.2,498.6,67.3,498.3,70.8z"/>
				<path id="XMLID_231_" class="st1" d="M532.7,84.2l0.1-3.6c0-6.9-0.6-12.3-1.9-16.3c-1.3-4-3-6-5.1-6c-2.2,0-4.5,2.1-6.9,6.3
					l0.8-3.9c3.2-4.2,6.1-6.3,8.8-6.3c6.1,0,9.1,7.6,9.1,22.9v1.4l2.1-2.6c6.4-7.7,9.5-13.3,9.5-16.7c0-1.6-0.6-3.1-1.7-4.4l5.6-0.6
					c0.9,1.3,1.3,2.4,1.3,3.5c0,1.5-0.6,3.1-1.8,4.9c-1.2,1.8-3.8,5.1-7.8,9.7l-9.4,10.9L532.7,84.2z"/>
				<path id="XMLID_228_" class="st1" d="M582.4,76.4l-0.4,2c-5.5,3.9-10.3,5.8-14.2,5.8c-2.5,0-4.5-0.9-6-2.6
					c-1.5-1.7-2.3-4-2.3-6.7c0-4.9,1.9-9.5,5.7-13.9c3.8-4.3,7.8-6.5,12.1-6.5c1.6,0,2.8,0.5,3.8,1.6c1,1,1.4,2.4,1.4,4.1
					c0,3.3-1.7,6.2-5.1,8.6c-3.4,2.4-7.5,3.6-12.2,3.6l0,1.2c0,5.1,1.9,7.6,5.6,7.6C573.8,81.2,577.7,79.6,582.4,76.4z M565,70.8
					c3.9-0.3,7-1.3,9.2-3c2.2-1.7,3.3-3.9,3.3-6.6c0-2.7-1-4-2.9-4c-2.1,0-4.1,1.4-6.1,4.2C566.6,64.2,565.4,67.3,565,70.8z"/>
				<path id="XMLID_226_" class="st1" d="M590.6,83.9l1.9-8l2.5-12.8c0.3-1.3,0.4-2.4,0.4-3.3c0-1.5-0.5-2.2-1.6-2.2
					c-1.8,0-4.5,2-7.9,5.9l0.5-2.3c4-4.3,7.5-6.5,10.5-6.5c2.5,0,3.8,1.4,3.8,4.3c0,1.3-0.2,2.7-0.5,4.2l-1.3,6.3h0.3
					c2.1-4.4,4.5-7.9,7.4-10.7c2.8-2.8,5.4-4.2,7.8-4.2c1.2,0,2.3,0.3,3.3,0.8l-3.5,4.7c-1-0.7-1.9-1-2.6-1c-3.4,0-7.9,5-13.6,15
					l-1.9,9.5L590.6,83.9z"/>
			</g>
		</g>
	</g>
</g>
</svg>
