<?xml version="1.0" encoding="utf-8"?>
<!-- Generator: Adobe Illustrator 21.0.0, SVG Export Plug-In . SVG Version: 6.00 Build 0)  -->
<svg version="1.1" id="Layer_1" xmlns="http://www.w3.org/2000/svg" xmlns:xlink="http://www.w3.org/1999/xlink" x="0px" y="0px"
	 viewBox="0 0 630.8 30.9" style="enable-background:new 0 0 630.8 30.9;" xml:space="preserve">
<style type="text/css">
	.st0{fill:#FFD120;}
	.st1{fill:#212122;}
	.st2{fill:#FFFFFF;}
	.st3{fill:#ED207D;}
	.st4{fill:#414042;}
</style>
<g>
	<g>
		<g>
			<g>
				<g>
					<path class="st3" d="M630.1,5.7c0.9,0.1,0.6-1.5,0.7-1.8C629.3,4.2,630.1,6.1,630.1,5.7z"/>
					<polygon class="st3" points="614.7,9.5 615,8.8 612.7,10.5 					"/>
					<path class="st3" d="M600.4,9.5c1.4,2.9,5.2-0.5,7.8,0.6l0.4,0.7l1.2-2.3C606.6,8.7,602.5,10.3,600.4,9.5z"/>
					<path class="st3" d="M592.7,3.3c0.5,1.1-1.7,1,1.8,0.3c-0.2-0.1-0.2-0.2-0.3-0.3C593.8,3.4,593.4,3.4,592.7,3.3z"/>
					<path class="st3" d="M594.2,3.4C595.7,3.3,593.2,2.4,594.2,3.4L594.2,3.4z"/>
					<path class="st3" d="M587.2,4l2-1c-0.4-0.7-2.2-0.8-1.5-1.3C585.6,2.3,586,2.9,587.2,4z"/>
					<path class="st3" d="M585.3,6.1l1-0.4C586.1,5.4,585.9,5.3,585.3,6.1z"/>
					<path class="st3" d="M588.5,4.8l-2.2,0.9c0.3,0.5,0.3,1.4,1-0.3C587.1,6.2,587.6,5.4,588.5,4.8z"/>
					<path class="st3" d="M589.7,5.2c1.1,0.6,2.6,1,0.6,2C594.1,6.8,593.6,4.8,589.7,5.2z"/>
					<path class="st3" d="M599.6,12.4l1.5,0.8l1.3-1C601.8,12.8,599.5,11.5,599.6,12.4z"/>
					<path class="st3" d="M574.7,2.5c-0.1,0.6,0.7,1.6,0.8,2.4l1.5-0.7C576.3,3.8,574.8,3.4,574.7,2.5z"/>
					<path class="st3" d="M575.6,4.9l-2.2,1C575.3,6.1,575.7,5.6,575.6,4.9z"/>
					<polygon class="st3" points="584.9,9.2 588.5,7.1 584.2,9.3 					"/>
					<polygon class="st3" points="566.3,2.4 567.6,1 565.3,3.2 					"/>
					<path class="st3" d="M560.7,2.7c0.9-1.2-1.3-2-0.3-2.7c-1.5,0.2-2.8,1.2-4,2.1C557.7,1.6,559,1.7,560.7,2.7z"/>
					<path class="st3" d="M554.5,3.4c0.6-0.3,1.3-0.8,2-1.3C555.8,2.4,555.2,2.8,554.5,3.4z"/>
					<path class="st3" d="M569.6,5.7c-0.2-0.4-0.5-1.3-1.7-1.7l0.9,1.7C569,5.6,569.3,5.6,569.6,5.7z"/>
					<path class="st3" d="M568.8,5.7L568.8,5.7c-1-0.1-1.6-0.1-1.9-0.2C567.1,5.6,567.7,5.6,568.8,5.7z"/>
					<path class="st3" d="M569.8,5.7c-0.1,0-0.1,0-0.2,0C569.7,5.8,569.7,5.9,569.8,5.7z"/>
					<path class="st3" d="M579.1,7.7c-1.3,1-4,2-1.4,3.4C578.7,10,577.2,9.1,579.1,7.7z"/>
					<path class="st3" d="M570.9,7.8l2.3,0.4c0-0.5-0.5-1.1,0.2-1.6L570.9,7.8z"/>
					<polygon class="st3" points="569.7,8.3 570.9,7.8 570,7.7 					"/>
					<path class="st3" d="M558.5,5c-1,0.7-2.1,0.8-3.4,0.9c1.3,0.3,2.7,0.5,4,0.5C559.4,5.9,560,5,558.5,5z"/>
					<path class="st3" d="M563.5,5.5c-0.1,0-0.2,0.1-0.2,0.1C563.4,5.7,563.5,5.8,563.5,5.5z"/>
					<path class="st3" d="M542.9,5.9c0.1,0.1,0.1,0.2,0.2,0.3c0-0.1,0-0.2,0-0.3L542.9,5.9z"/>
					<path class="st3" d="M559.4,6.8c1,0.3,1.6-0.1,2.2-0.6c-0.8,0.2-1.6,0.3-2.4,0.3C559.1,6.7,559.1,6.9,559.4,6.8z"/>
					<path class="st3" d="M551.1,4.2c0.5,0.4,1.1,0.7,1.7,0.9C552.3,4.6,551.3,3.8,551.1,4.2z"/>
					<path class="st3" d="M562.9,5.1c0.1,0,0.1-0.1,0.2-0.1C562.8,4.7,562.8,4.9,562.9,5.1z"/>
					<path class="st3" d="M562.9,5.1c-0.5,0.2-0.9,0.7-1.3,1c0.6-0.1,1.2-0.3,1.7-0.6C563.1,5.5,563,5.3,562.9,5.1z"/>
					<path class="st3" d="M539.1,16.9c0.2-1.6,2.8-3,5.1-1.3c2.2-1.2,0.8-6.4-1.2-9.3c-0.1,0.7-0.1,1.3-2.4,2.3
						c0.8,0.9,5.1,2,3.2,3.5c-3.1,0.8-2.5-0.6-4-1.4c1.3,2-3.9,2.9-3.2,5.8l2.7-1C539.4,15.8,538.4,16.5,539.1,16.9z"/>
					<path class="st3" d="M547.5,6.4l1-0.2c-1.1-0.3-1.9-0.9-3.3-2.1c-1.6,0.8-1.9,1.4-2,1.9l4.7,0.2L547.5,6.4z"/>
					<path class="st3" d="M552.7,6.2c-0.7,1.7-3,2.5-1.6,4.3c2.8-0.1,2-1.4,3.6-2.2c-4.5,0.4,1.3-1-2-1.9c0.9-0.3,1.7-0.4,2.4-0.5
						c-0.8-0.2-1.6-0.5-2.3-0.8c0,0,0.1,0.1,0.1,0.1l0,0c0,0,0,0,0,0c0.2,0.2,0.3,0.3,0,0.2c0,0-0.1,0-0.1,0
						C552.9,5.8,552.8,6,552.7,6.2c-1.3-0.4-0.2-0.5,0.2-0.7c0-0.1,0.1-0.2,0.1-0.3c0,0,0,0,0,0l-4.5,0.9
						C549.4,6.4,550.6,6.4,552.7,6.2z"/>
					<path class="st3" d="M575.3,14.8c-0.1-0.2-0.1-0.3-0.1-0.4C574.9,14.7,574.8,14.8,575.3,14.8z"/>
					<path class="st3" d="M573.5,13.8c0.3-0.2,0.6-0.9,1.7-0.8c0.9,0.5,0,0.8,0,1.4c0.6-0.5,2.3-1.2,0.2-2.1l-0.3,0.2
						c-1.8-0.6-4.2-2.7-3.8-3C571.8,11.2,572.3,12.3,573.5,13.8z"/>
					<path class="st3" d="M563,10.4l-3.8,0.8l1.9,1.5l-0.1-0.9C563.2,12.2,562.7,11.1,563,10.4z"/>
					<polygon class="st3" points="542.4,5.1 542.9,3.3 540.7,5.8 					"/>
					<polygon class="st3" points="537.5,5.3 537.7,3.7 536.4,4.7 					"/>
					<path class="st3" d="M261.7,24.9l-1.1,0.4C261.2,25.2,261.5,25.1,261.7,24.9z"/>
					<path class="st3" d="M269.7,25l0.2-0.8C269.6,24.7,269.4,25,269.7,25z"/>
					<path class="st3" d="M417.5,5.5c-1.6-1.5-3.4-3.8-3.2-2l0.5,1.7C415.9,4.9,416.8,5.1,417.5,5.5z"/>
					<path class="st3" d="M335.3,15.8c0.2,0.2,0.3,0.3,0.5,0.5c0.4-0.6,0.8-1.1,1.1-1.7C336.4,15.1,335.9,15.4,335.3,15.8z"/>
					<path class="st3" d="M334.2,23l-2.1-1.1C332.5,22.3,333.2,22.7,334.2,23z"/>
					<path class="st3" d="M218.1,26.8l-1.3,1.8C218.8,28.5,217.9,27.6,218.1,26.8z"/>
					<path class="st3" d="M487.5,5.9c-1.4-0.7-2.5-1-3.5-1C485.7,5.9,487,7.4,487.5,5.9z"/>
					<path class="st3" d="M264.9,6.5c-0.7,0.3-1,0.7-0.9,1.1C264.6,7.3,265,6.9,264.9,6.5z"/>
					<path class="st3" d="M480,4.9c0.2,0.2,0.5,0.3,0.7,0.4c1-0.3,2-0.5,3.3-0.4C482.8,4.1,481.4,3.7,480,4.9z"/>
					<path class="st3" d="M59.6,25.3c-0.1-0.1-0.3-0.1-0.4-0.2C59.2,25.4,59.4,25.4,59.6,25.3z"/>
					<path class="st3" d="M13.4,7.8c0.5-0.1,1.2-0.1,1.9-0.1C15,7.6,14.4,7.6,13.4,7.8z"/>
					<path class="st3" d="M517.9,4.5C518.9,4.4,518,4.3,517.9,4.5L517.9,4.5z"/>
					<path class="st3" d="M522.9,11.4c-0.2,0.2-0.4,0.4-0.4,0.8C522.6,11.8,522.7,11.6,522.9,11.4z"/>
					<path class="st3" d="M469.7,15.7C469.6,15.7,469.6,15.7,469.7,15.7C469.9,16,469.8,16,469.7,15.7z"/>
					<path class="st3" d="M519.4,5.3c-0.4-0.2-0.8-0.4-1.3-0.5C518.3,4.9,518.7,5.1,519.4,5.3z"/>
					<path class="st3" d="M519.2,4.5c0.4,0.1,0.6,0.1,0.9,0.2C520.3,4.4,520.1,4.2,519.2,4.5z"/>
					<path class="st3" d="M516.4,4.6c0.6,0,1.1,0.1,1.7,0.2c-0.2-0.1-0.3-0.2-0.2-0.3C517.6,4.6,517.1,4.6,516.4,4.6z"/>
					<path class="st3" d="M144.5,20.7c-0.1-0.1-0.1-0.1-0.2-0.2C143.2,21.2,143.7,21.1,144.5,20.7z"/>
					<path class="st3" d="M390.5,23.5c0,0,0.1-0.1,0.1-0.1c0,0-0.1,0-0.2-0.1L390.5,23.5z"/>
					<path class="st3" d="M386.8,24.8c1.6-2.2,2.5-1.9,3.7-1.4l-1.2-5L386.8,24.8z"/>
					<path class="st3" d="M242.6,25.4l2.6,1.6c-3.2,2.6-5.4,1.7-3,3.9c0.4-5.4,10.2-0.6,10.5-6l1.7,1.1c-0.5-0.1-0.6,0.3-1.1,0.2
						c3.4,2.6,2.5-3.9,6.8-3.2c1.5,0.4,2.6,1.2,1.5,1.8l3.4-1.3c1,0.1,0.7,1-0.2,0.9l5.1-0.4l0,0.2c0.7-0.9,2.4-2.2,3.2-2.7
						c1.3,0.8-0.7,0.6-0.3,1.3l2.8-1.3c1.2,1.4-1.2,2.8-3.1,2.6c2.6,5.4,2.3-1.4,8.1,1.8l-2.7,0.7c1.7,3.1,3.8,2,6.8,3.9
						c-0.7-1-6.1-4.8-3-6.2c0.9,0.4,2,0.6,3.7-0.5c0,1.9,1.6,1.5,3.7,1.3l-0.1,2.6c2.2-0.7,2-2,3.3-3.2c2.4,0.3,2.9,2.2,3.5,3.9
						c3.9,0.4-2.7-3.2,1.9-3.7c3.3,1,5.5-0.1,9.4-1.6c2.3,0.9-0.4,1.6,0.4,2.3l2-2c0.5,0,0.3,0.7,0.3,1c1.7-0.8,0.1-2.6,2.8-3.3
						c0.7-2.8,5.5,4.1,8.8,0.9c0.8,0.7-0.4,1.6-0.1,2.6c4.5-2.1,3.9-1.5,7.6-4.4l3.2,1.7c-2.3-1.9,0.6-4.2,3.3-6.1
						c-0.8-0.9-1.5-1.7-2-2.1l4.2-1.4c0.5,0.4,0.1,1.3-0.6,2.4c0.3-0.2,0.6-0.4,0.8-0.6c1.5,0.9,0.7,2.4-0.3,3.9
						c-0.5-0.5-1-1-1.5-1.6c-1,1.6-2,3.3-1.8,4.8c0.3-0.3,0.8-0.5,1.4-0.7c-0.3,0.4-0.4,0.8-0.3,1.1c0.1,0.3,0.6-0.3,1.3-0.9
						l0.9,2.9l0.2-1.1l5.4,1.8c3.9-2.9,7.3-7.1,13.5-8.3c-1.5,2.1-0.3,3.4-0.4,5.9c-1.7-2.6-4.8,1.1-8,0.6c1.7,0.3,1.3,1.5,0.9,1.9
						l5.7-2.4c-0.1,2,1.2,1.5,2.7,2.4c-1.1-4,4.3-2.7,6.6-3.9c0.1,1.3-0.4,2.7-3.3,2.4c3.1,3,4-4.7,7.1-2.1c-0.7,0-1.1-0.2-1.3,0.5
						c1.6-1.2,5.6-0.2,4.6,0.9l-0.7,0c4.6,0.5,14,0,14.7-3.4c0,0.4-0.6,4.1-0.9,4.8l8.2-11.4c-0.7,2.9,2.1,9.9-1.8,11.5
						c1.1,0.4,2.5,0.9,4.8-0.1c-0.7-0.4-1.9-4.2-0.8-4.5c2.8,3.3,1.9,1.7,5.4,4.5c-1.1-0.6,0.1-5.2,1.9-5.1c-0.3,0.7,0.1,4.5-0.5,5
						l4.4-4.5c-1.1,0.8-0.2,3.8,0.8,5.1c-0.5-0.9,3.8,0.1,5-0.4l-1.9-1c5,0.7,4.9-6.3,9.9-6.1c-0.6,0.9-1.5,5.7,1,6.3
						c1.2-2.3,5.1-11.1,9.5-12.9l0.8,1.3l3.4-1.5c-2.1,3.5-7.9,10.8-11.1,13.6c1.9,1,0.5,1.6,3.3,1.4c1,1.2-1.5,1.9-2.3,1.9l6.5,0.8
						c-0.3-2.7,5-2.7,4.7-4.9l-7.1,2.8c-0.3-2.7,4.1-7.6,8.7-7.2c1.2,1.1-0.9,4.8-0.8,5.7c0.6-0.9,4.4-1.8,4.8-1.1l-2,1.4
						c2.6,1,4.2-3.6,7.3-1c1.1,0.2,3.2,3.5,3.4,1.9c-1.7-3.1-2.1-12.6-0.9-14.9c0.4,0.2,5.6,2.9,6.8,4.4c1.7,2.4-2.6,5.7-1.1,7.8
						c0.1-0.7,1-1.6,1.4-1.9c1.1,0.6-0.5,2.3,2,1.9c0.4-2.7,4.9,0.2,1.1-2.3c2.4-0.8,2.5,0.6,5.3,0.4c-0.9-1.8,2.5-6,4.9-6.8
						c-0.1,0.7,0.4,1.6,0.7,2c4.9,0.2,7.5,1.5,12,1.5c0.4,0.7,2.6,1.5,1.7,2.6c0.7-0.5,1.3-1.4,2.6-1.5c2.7,2.4-3.1,0.4-1.1,3.2
						c0.2-1.6,3.6-2.2,5.6-3.2c-0.6-2.4-4.6-0.5-6.6,0.5c0-3.4,3.5-6.9,8.2-8.5c3.8-0.8,1.6,2.2,2.3,1.7c7.1,0.6,6-5.9,11.9-3.5
						c2.3,2.2,0.1,4.3,0.6,5.8c-3.1,0.8-4.7-1.4-6.8-1.3l2.6,1c-1,0.7-3,1.3-4.1,0.6c2,1.9,11.9,0.4,17.4,2.2c1-0.7,2.6-1.5,1.9-2.3
						l-1.7,0.3c-1.6-1.7,3.2-2.4,1.1-3.2c2.3-1.2,4.9-3.1,8.2-2.2l0.6,2.5c-0.1-0.7-2.1-1.5-3-0.7c1.4-1.1,5,3.3,6.5,0.1l-2.3-1.7
						c2.3-1.2,5.2-3.8,8.1-3.1c-1.3-2.4-0.7,0.3-2.7-2.6c1.8,3.5-7.4-0.1-4.5,3.6c-2.1-3.3-3.6-1.4-6.4-4.2c0.1,0.8,1,1.5-1.4,1.1
						c-0.1,0.2-0.4,0.5-0.5,0.7c-0.1,0-0.1,0-0.2-0.1c0,0,0.1,0.1,0.1,0.1c-0.1,0.1-0.1,0.1,0,0c0.6,0.4,1,0.8,1.2,1.2
						c-1.2,1.9-5.1,1.8-6.4,2.8c-1.4-0.4,0.6-0.9-0.2-1.8l-1.9,1.4c-0.2-1.8-3.8-3-0.4-4L508.9,5c-1.8-1-4.3-1.4-5.8-0.7
						c-1.4-0.4-3.6,2-2.4,0.6L495.9,6l0-0.4c-4.7-0.2-9.7,3-15.1-0.3c-1.6,0.5-3.2,1-5.9,0.5l-0.5-1.6c-2,0.5-6.1-1.6-7,0.1
						c-2.2-4.2-9.9-0.9-13.5-1.7l-0.1,2c-2.5-0.1-4.8,0.5-7.9,1.3l0.2,1.8c-2.6,1.5-6.8-1.3-11-1.1c0.3-0.7,1.3-0.5,2.1-0.1
						c-5-4.1-10.5,2.9-15.1,0c-1.1,0.7-1.9,0.4-2.7,0c0.1,0,0.2,0,0.3-0.1c-0.1,0-0.3,0-0.5,0c-0.5-0.3-1-0.7-1.6-1
						c0.5,0.4,0.9,0.8,1.3,1c-0.9,0-2.2,0.3-3.5,0.7l-0.6-1.9c-0.1,0-0.2,0-0.3,0.1c-1.3-0.7-1,0.9-0.3,2.4
						c-0.7,0.3-1.2,0.7-1.7,1.2c-1-3.1-3.4,1-4.8-2.3c-0.9,1.6-6.5,1.2-7.2,4.6c0-0.4-0.4-0.7,0.3-0.7c-1.4-0.4-2.9-0.8-4.2,0.2
						l-0.6-2.4l-3.2,3.3c-1.9-1.5-2.7-2.4-0.8-4.2c-4.6,2.9-3.7,1.1-7.6,4l0.2-1.6c-1.4,0.1-3.6,2.2-4.5,0.9
						c-3.1-3-15.5-0.4-23.5-3.2c1.6,4.7-3.7-2.1-4,1.5c-0.5-1.1-1.6-1.7-0.3-2.7c-4.1,1.1-6.1-1.7-9,1.3c-0.5-1.1,0.9-1.6,0.5-2.3
						c-0.3,0.2-1.3,1-1.7,0.3c-0.4-0.7,0.6-0.9,1.2-1.4c-4.2,0.2-4.6,3.6-4.9,6.8c-2.1-1.5-3.2-1.3-4.7,0.8c-0.7-1-2-2.1,0.6-2.5
						c-1.5-0.2-8.9-1.5-9.1,1c-0.5-0.6-2-0.2-2.4,0.1c-3.3-0.2-3.6-0.4-6.8-0.1l0.9,0.4c-1.3,3.1-2.7,0.7-5.3,1.1l0.1-0.3
						c-5.9-2.2-2.6,1.1-8.4-1.5l0.3,1.9c-0.5,4.1-5.2-2.4-8.6-0.9l1.2,1.1c-1.9,1.4-5.2-5.6-7.1-6.1c-0.4-0.4,0.6-0.6,1.2-0.8
						c-4.9-2.4-0.6,2.5-4.3,3.1c-0.7-1.4,0.9-3.4-1.6-3.7c-1.2-1.1-7.1,4.4-10.5,1.8c0.7,1,1.5,2.1-0.2,2.9c-2.6,0.4-7-3.9-9.4-0.7
						c-0.3-0.3-0.5-0.6-0.5-0.8c-2,0.8-6.4,1.4-7.6,3.2C254.5,4.1,244,14,244,7.9l-6.1,0.3l0.2-0.6c-3.9-0.4-5.3,1.1-6.7,2.5
						c-0.9-0.4-0.2-1-0.2-1.3c-5.7-1.2-6.3-1-11,2.1l-0.5-2c-1.3,1.2-8.2-3.1-13.8-0.8c0.1-0.2,0.2-0.6,0.6-0.9
						c-6.3,2.3-15.1-5.5-17.4,1.7l-4.1,1.8c5.4,0.6-0.8,3.1,1.4,4.3c-2.1,0.4-5.5-2.2-2.9-2.5l0.4,0.4c1-3.8-6.7-1.3-6.5-3.9
						c-10.6,0.2-20.9-1.9-30.8-2.1l1.1,2.9l-3.5-0.2c-0.9-0.7-1.2-2.3,1.2-2.2c-1.3-1.7-4.1,1.4-4.2,2c-4.8-1.2,1.9-3.4,0.4-3.5
						l-2,0.2l0.5,0.3c-1.6,1.2-1.8,2.5-4.7,2.3c-1.9-0.6-1-1.8-1.7-1.9c0-0.2-0.2-0.3-1.1-0.1l-4.3-0.3l1.7,2.3
						c-1.9,1.1-4.1-0.1-2.1,2.5c-2.9-4-16.2-1.4-18-2.7c-2.7,1.7-5.4,1.7-8.7,1.5c0.8,0.5,1.3,3.1-1.5,2.8c1-5.4-5.2-2.3-7.5-6.2
						c2.1,2.6-8.1,0.6-4.9,4.3c-2.4-0.4-0.1-2-1.9-3.3C79.8,9.9,73,6.4,66,7.1C65.9,7.8,67,8.9,65.5,10l-3.7-3.5
						c-1.4,0.3-1.3,4.1-3.8,1.6c0.4,0.6,0.9,1.5,0,1.7c-13.7-3.4-28,2.8-41.9-3.6c1.9,1.4,0.6,1.5-0.8,1.5c0.9,0.3,0,1.7,0.2,2.7
						L9.7,7.7c-1.1,2.6-6.2,0.2-6.8,2.7L4.7,10c-2.5,3,3.4,6.6,3.1,10.5c2.7-3.4,7.2,5,11.7,0.2c1,0.8-0.8,1.2-0.3,2.1
						c1.1-1.6,2.5-2,5.1-1.2l-0.3,0.4c7.2-0.4,10.3,1.2,18.3,2.3l-0.6-1.9c1.7,0.3,2.1,0.8,2.9,1.3c2-2.9-4.9-0.2-3.1-3.3
						c2.3,3.9,12.2,0.1,13.8,4.4c2.7,0-0.8-2.2,1.9-2.2l0.7,1.2l0.7-1.5c1.7,0.3,2.6,1.7,2.7,2.7c-0.4-0.1-1.2,0.3-1.7,0.4
						c2.3,1.4,6.4-0.5,7.2,0l-2.6-0.7c7.3-1.1,16.2,0.4,23.2-2l-0.5-0.9c5.4-1.7,4.3,1,10.2,0.2l-0.2,0.2c1.2-0.9,2.8-1.3,4.4-1.2
						c-1.5,1,2.8,2,0.8,3.2c5.8-1.8,2.9-1.4,6.7-4.7l0.9,1.5c1.3-1.3,1.4-2,4.4-2.4c-2.4,1.3,1.9,2.3-0.8,3.9
						c6.2,3.2,9.2-3.3,12,1.5c2.8-4.1-5.3-2.3-3.8-3.2c-1.3-1.3,2.3-3.1,4.3-2.7c2,0.1,3.4,5.3,8.3,5.2c-0.5,0-0.5,0.3-1,0.3
						c1.9,1,3.6-1.4,5.9,0.3c1.3-2.5,3,0.1,3.3-3l-4.6,0.7c2.6-0.8,5-4.5,9.3-2.7c-0.3,0.6-1.6,1.5-2.5,1.9c1.2,0.9,2.4-0.6,3.7,0.3
						c-0.4,3.2-5.5,0.7-8.3,3.1c1.3,1.3,5.2-2.3,3.8,1.1c2-4.4,4.9,0.6,8.3-2.8l-0.2,1.9c0.5-0.3,1.6-1.2,2.6-1.1l-1.8,2.5
						c2.7-2.1,5.2,1.8,7.9,0.7c-5.5,0.1-1.2-2.3-3.5-3.7c6.7-2.5,3.9,5,11.4,4.1c-1,0.3-3.8-1.1-2.2-2c1.4,0.4,3.3,1.1,4.2,2.1
						c5-0.4-0.8-2,1.4-3.1c1.7,2.3,2.5-0.9,4.6-1.7l0,1.9c5.7,1.2,1.5-4,6.6-2.5l-2.2,2.7l2.7-0.7l-0.6,2.2c2.9-1.6,3.8-1.2,6.7-0.6
						c-0.7-1.4,0.4-3.5,2.9-3.6c1.7,1.1-1,1.8,2.6,1.6c-0.8,1.2-1.7,2.7-3.2,0.9c-0.2,0.6-0.8,1.2-1,1.8c1.9,1.3,4.7,0.3,6,0.3
						c-0.5-0.1-1.1-0.2-1.4-0.5l5.2-2.7c0.8,0.7,0.2,1.3-0.5,1.9c1.1-0.2,1.8-1.1,3.3-1.3c-0.4,1.6-0.3,3.2-2.5,3.9l4.9-1.7
						c0.3,0.7,2.5,1.9,1.9,2.5c2.7,0.9,6.7-3,10.4-1.8c0.2-0.3,0.6-0.6,1.3-0.8c3.4,0.4,6.4,2.3,10.5,0.1l2.3,2.8
						c3.2-0.6-3.1-3.5,2.2-4.6c3.7-0.9,1.4,2.4,2.7,3.2c1.9-1.4,5.1-4.3,8.5-2C244.5,25.6,243.7,25.2,242.6,25.4z M281.7,24.2
						c-0.8,0.4-2.3,1.7-2.8,0.5C279.7,22.5,280.4,23.6,281.7,24.2z M341.1,19.5c-0.6,0.6-1.4,0.3-2.4-0.4
						C339.4,19,340.2,19,341.1,19.5z M506.5,6.1C506.5,6.1,506.5,6.2,506.5,6.1C504.7,5.4,505.3,5.7,506.5,6.1z M510,6.9
						c0.4-0.3,0.3-0.5,0.2-0.8c-0.2,0.5-1,0.5-1.9,0.4C508.5,7,509,7.4,510,6.9z M133.4,7.7l0.7,0.5C132.6,8.8,133,8.3,133.4,7.7z"
						/>
					<path class="st3" d="M334.3,22.2c-0.2-0.3-0.3-0.7-0.3-1C333.7,21.5,333.7,21.8,334.3,22.2z"/>
					<path class="st3" d="M218.3,26.4c0,0-0.1,0-0.1,0c-0.1,0.1-0.1,0.2-0.1,0.3L218.3,26.4z"/>
					<path class="st3" d="M455.7,23.3c-0.7-0.3-1.1-0.6-1.4-1C454.3,22.8,454.6,23.2,455.7,23.3z"/>
					<path class="st3" d="M528.6,3.7l-2.2,0.5c1.1-0.1,1.5,0.3,2,0.6C528.3,4.3,527.9,3.7,528.6,3.7z"/>
					<path class="st3" d="M548.1,15.6c0.3-0.2,0.7,0,1-0.3l-0.1-0.9C547.6,14.5,546.7,15.2,548.1,15.6z"/>
					<path class="st3" d="M530.7,10.1c0.2,1.6,1.6,1.1,3.2,0.8c-0.1,0-0.2,0-0.3,0C534,8.6,532.3,9.3,530.7,10.1z"/>
					<path class="st3" d="M534.2,10.8c0.5-0.1,1-0.1,1.5,0C535.8,9.8,535.1,10.6,534.2,10.8z"/>
					<path class="st3" d="M514.5,5.9c0.7,0.4,0.5-2.1,0.9-1.4C516.2,2.4,510.4,7,514.5,5.9z"/>
					<polygon class="st3" points="532,15.4 531.4,13.4 530.5,15 					"/>
					<path class="st3" d="M519.5,14l2.5,0.6c0-0.3,0.3-0.5,0.7-0.7C521.2,13.8,519.5,13.4,519.5,14z"/>
					<path class="st3" d="M522.7,13.8c0.8,0,1.6,0,2-0.3C524.3,13.5,523.4,13.6,522.7,13.8z"/>
					<polygon class="st3" points="528.5,16 527.8,15.6 526,15.5 					"/>
					<path class="st3" d="M492.5,13.6l-2.7,0.6c-0.3,0.7,0.5,1.1,1.5,0.8C491.9,14.5,492.9,14.2,492.5,13.6z"/>
					<path class="st3" d="M500.8,19.1c-0.7-0.4-0.8-0.9-1.2-1.5l-0.1,2.5L500.8,19.1z"/>
					<path class="st3" d="M492.8,19.6c-0.3,0.7-4,2-0.5,1.8C492.6,20.8,495.3,20.2,492.8,19.6z"/>
					<polygon class="st3" points="451.5,16.5 452.1,16.5 452,12.4 					"/>
					<path class="st3" d="M415,26.2c3.3,1,0.8-2.5,3.7-1.3c0.8-1-2.4-1-1.6-1.8C415.1,24.1,414.1,23.6,415,26.2z"/>
					<path class="st3" d="M417.1,23.1c0.3-0.2,0.6-0.4,1-0.6C417.5,22.8,417.3,22.9,417.1,23.1z"/>
					<polygon class="st3" points="5.8,5.6 3.7,4.8 5,6.2 					"/>
					<path class="st3" d="M1.7,8.7L1.3,6.1L0,8.4C0.5,8.3,1.4,8.1,1.7,8.7z"/>
					<path class="st3" d="M287.5,29.4l0.2-0.6c-0.3-0.7-0.8-0.7-1.8-0.8L287.5,29.4z"/>
					<polygon class="st3" points="259.1,27.5 259.6,27.5 258.7,25.2 					"/>
					<path class="st3" d="M235.3,30.5c1,0.1,2.1-0.4,3.1-0.3C236.3,30.6,235,27.5,235.3,30.5z"/>
				</g>
			</g>
		</g>
	</g>
</g>
</svg>
