<svg version="1.1" id="Layer_1" xmlns="http://www.w3.org/2000/svg" x="0" y="0" viewBox="0 0 641.4 116.5" xml:space="preserve"><style>.st0{fill:#ffd120}.st1{fill:#212122}</style><path class="st0" d="M13.4 76c-5.5.2-7.8.6-13.4 2.8 5.2-1.1 10.4-.2 13.4-2.8zm28.4 8.8c-6.2.6-10.7 1.3-16.3 3.5-10.4 2.1 0 0 6.2-.6 3.9-.3 9.4 1.4 10.7-1.3-5.3 1-2.6-.5-.6-1.6zm327.8-72.5c-.2.1-.4.1-.6.1.2 0 .4 0 .6-.1zm264.9 5.2c1.6 0 5.5-.3 6.8-1-4.5-1.3-5.1-4.8-8.9-6.4-1.6 0-.4 3.1-2 3.1-11-1.4-22.3-5.6-32.7-5.4 6.8.9 14.6 2.3 18.4 3.9-18.5-2-31.5-.4-48.6-3.1-7.5 1.4-14 1.2-24.4 3.3 11.4.3 24-.2 35.7.9 11.4.3 21.7 2.1 28.4 6.9-2.6-.5-4.8-2.1-6.8-.9 3.9 1.6 9.4 1.4 13.2 3 .1-3.9 9.1-1.3 12.1-2-.6-3.5-5.7-4.4-3.1-5.9 3.7.4 7.4.9 7.1 2.2.6-.8 1.6-1.2 2.9-1.2 1.3 1 3.9 1.4 1.9 2.6zm-483.6 42c-1.7-.1-2 1.1 0 0zM214 97.4c-.3.2-.2.1 0 0z"/><path class="st0" d="M629.7 15.9c-.2.2-.3.4-.4.7.3-.3.4-.5.4-.7zm-72-3.8c-4.2-.5-6.2.6-10.4.1-.7 2.3 3.2.1 2.2 1.6-12.7.8-29.4-1.3-43.9-2.5.6 0 1.1-.1 1.1-.1h-2.3c-.3 0-.7-.1-1-.1.1 0 .2.1.3.1-11.1 0-22.1-.4-29.5 1.2 8.8-.2 19.8 1.2 24 1.7-5.9 1.4-18.2.7-25.7.2.6 1.6-2 1.1-3.3 1.9-4.5-1.3-25.4.9-32.1-1.9-9.5 2.5-26-.6-34.4.3 3.2.1 5.8.5 7.8 1.4-13.6.1-24.3-.6-36.4-.5-9.1-.6-18.9 1.1-27.2-1.8 7.9-1.7 15.2.6 22.2-1.3-.6 0-1.1-.4-1.3-1 13.6-.1 19.2-.3 27.6.7-11.9-3.8-35.4-.1-47-3.1-.4 1.2-2.9.7-4.3 1.5 9.1.6 15.3 0 23 1.3-8.8.2-20.8.3-32.2 0-11.4-.3-23.4-.2-33.8 1.9.4-1.2 1.3-.7-.3-.8-8.8.2-12.7.5-20.5 1.1-11.2 6.3-36.2 8.1-52.2 8.5 2.9-.7 8.1.2 7.9-2.5-12 .1-23.8 4.9-34.9 5.4 1.9.8 5.5-.3 5.8.5-21.8 1.8-32.3 3.9-44.6 5.1-2.6-.5-12.4 1.3-4.6.7 3.2.1 9.1-1.3 11.7-.9-13.4 2.8-22.2 3-33 6.2 3.9-.3-.7.4-.4 1.2 15-.8 28-2.4 39.7-1.4-2.8.7-10.9.9-10.5 1.9-8.2 1-16.5 2.1-24.3 3.5-13 1.6-25.1 3.7-34.9 5.4 0 0-10.7 1.3-6.5 1.8 17.9.4 44.3-5.9 64.5-9.7-2 3.1 1.6 0 2.5 2.4 6.2-2.6 14.7-1.6 23.4-1.8-14.3 2.4-33.8 1.9-45.3 5.5 3.6-1.1 6.8-1 8.8-.2-7.5 1.4-13.3.8-15.7 3.1 10.4-.1 21.5-2.6 32.2-1.9-7.2.2-13 1.6-2.3.3 9.4-.6 20.5-3 26.3-.5-11.4 1.7-25.4.9-33.2 3.5 1.6 0 2.6.5 1.9.8-3.2-.1-11.1 2.5-8.2 1.7 6.8.9 14.3-2.4 22.8-1.4-10.4 2.1-21.1 1.4-28.7 4.7 2.3-.3 5.9-1.4 6.2-.6-2.9.7-5.9 1.4-6.5 1.8 7.5-1.4 19.8-.7 25.1-3.7-.7.4-8.2 1.7-11.7.9 7.5-1.4 17.6-4.2 24.7-2.5-3.6 1.1-8.1-.2-11.4 1.7 1.6 0 5.2-1 4.2.5-2.6 1.5-4.5-1.3-4.3 1.5 4.6-.7 9.8-1.7 11.7-.9-4.6.7-9.1 1.3-12.1 2-1.6 0-1.3-1.2-2.6-.5-4.3 1.5-10.1.9-12.7 2.4l-8.5 1 5.5-.3c9.4-.6 21.2-3.4 27.6-1.3-2.3.3-5.8-.5-6.2.6 10.7.6 24.4-1.4 33.5-.8-16 4.3-31.5 1.6-44 6.7 2.6-1.5-2 1.1-1.9-.8.4-1.2 4.9.1 4.3-1.4-5.8-.5-8.2 3.7-11.7.9-4.4 5.3-21.9 3.7-31.3 6.2-3.6 1.1-9.5 4.4-14.7 3.5.7-.4 5.9-1.4 4-2.2-3.6 1.1-4.6 2.6-9.5 2.5.7-.4 1.3-.7 2-1.1-16.6 2.7-53.8 6.5-66.5 8.9-9.5 2.5 5.8.5 9.7.2 0 0-.7.4-.4 1.2 24.5-5.2 49.5-7 65.1-6.2 10.8-3.2 23.1-2.6 31.9-2.7-4.6 2.6-22.8 1.4-18.3 2.7-8.1-.2-22.5 2.2-25.4 2.9 2.2 1.6 9.1-1.3 11.1-.5-23.5 3.7-39.4 4.1-58 7.9-1.3.7.3.8-1 1.5-5.5.3-3.3 1.9 1 .4 16.3-3.5 36.5-5.3 51.1-5-3 2.6-15 2.7-22.5 4.1-3.9.3 1 .4 2.3-.3 5.2.9 19.2-2.3 25.4-.9-1.6 0-4.9-.1-5.2 1 3.9-.3 7.2-.2 8.8-.2-2.3 2.3-11.5 3.6-3.6 1.1-4.9 1.8-11.4-.3-13 1.6 4.9.1 3.9-.3 8.1.2-1.3.7-7.5 1.4-4.9 1.8 2.9-.7 6.5-1.8 10.4-2.1 7.5.6 41.7-4.4 54.3-3-11.4 1.7-25.4 2.9-32.6 5 6.5.2-2.6 1.5-2.3 2.3 3.9-.3 8.5-1 10.4-.1-13.7 2-27.7 3.2-41.4 5.2-2 1.1 4.6-.7 6.2-.6 16.9 0 43.7-7.5 56.9-4.5 3.3-1.9 7.2-.2 9.7.2-6.5 1.8-15 .8-21.5 2.6-4.9 1.8 7.2-.2 7.8-.6 7.5.6 19.1 1.6 26 .6-5.2 1-10.8 1.3-18.6 1.9-3.2-.1-8.2 1.7-2 1.1l10.7-1.3c8.7 1.8 31.9-4.7 38-1.4-.7-.3-1.8.2-2.2.3 4.9.1 10.7-1.3 13.9.7-8.1-.2-19.2 2.3-22.4.2-2.9.7-6.5 1.8-8.2 3.7-4.2-.5-18.2.7-22.8 1.4 1 .4 3.6-1.1 2.9 1.2-9.1-.6-21.5.7-33.9 3.8 12-.1 26.1-3.3 36.8-2.6-13.7 2-30.3 2.8-37.5 6.9 6.5.2 11.4-1.7 16.9-1.9.3.8-.4 1.2 1.9.8 12-.1 17.9-3.5 27.3-2.1-2.3.3-5.2 1-6.5 1.8 5.5-.3 9.8-1.7 12.4-1.3-2 1.1-10.4 2.1-10.1 2.9 3.6-1.1 8.8-.2 10.7-1.3 0 0-.4 1.2 1.3 1.2 7.5-1.4 19.9-2.6 28-2.4 34.8-1.5 71.9-3.3 108.2-2.8 8.1.2 15.9-.4 24-.2 58.8.2 118.7-4.9 179.3 0-.4 1.2-1.3.7 0 1.9 18.2 1.2 44.7 3.4 60 5.3 0 0-2.9-1.2-1.3-1.2 11 1.4 7.9-6.4 19-5-2.4-6.3 1.3-13.2 11.4-14.1-.3-.8-3.6-.9-3.2-2 11.5-5.5 2.6-12 7.6-19.6-4.2-2.4-.5-5.4-5.3-7.5 2.3-.3 5.5-.3 6.5-1.8-2.6-.5-3.6-.9-4.8-2.1 2.3-2.3.4-5 2.7-5.4.7-2.3-3.9-1.6-4.2-2.4 3.9-.3 1.5-6.6 6.6-5.7-1.9-2.8.1-3.9-2.8-5.1 6.3-6.4-4.9-12.5-1.9-17.1 3.9 1.6 1 .4 4.2.5-3.9-1.6-10.7-2.6-13.9-4.6-1-.4-1.9-.8-3.2-.1-20.7-1.7-37.2-6.7-59.6-8.4 1-.1 3.6.4 4-.8zM170.7 38c3-.5 6.1-1.1 7.7-.8-2.6.3-5.2.6-7.7.8zM16.5 96.2c5.6-2.2 15.3-2 14.4-4.3-4.6 2.6-12.1 2.1-14.4 4.3zm101-56.2c2.9-.7 6.2-.6 7.2-2.2-2.9.8-5.9 1.5-7.2 2.2zm18-5.4c3.6-1.1 10.1-.9 12.7-2.4-4.2 1.5-10 .9-12.7 2.4z"/><path class="st0" d="M128.1 60.9c2.6-1.5 5.6-2.2 7.2-4.1-2 1.1-9.8 1.7-8.5 2.9.7-.4 2.9-.7 3.2.1-1.6-.1-2.9.6-1.9 1.1zm-52 27.4c2.9-.7 5.8.5 7.5-1.4-1-.3-10.1 1-7.5 1.4zm54.6-27c-2.6 1.5-9.4.5-12.4 3.2 3.9-.3 13.3-.8 12.4-3.2zM81.8 92.7c2.3-.3 8.8-.2 11.4-1.7-2.5-.4-9.7-.2-11.4 1.7zm56.9-27.3c-3.6 1.1-9.8 1.7-12.4 3.2 4.5-.7 12-2.1 12.4-3.2zm1.9.8l2.3-.3c11.4-1.7 1.4-2.7-2.3.3zm16-4.3c.4-1.2 4.6-.7 4.6-2.6l-5.2 1c.3.8-1 1.6.6 1.6zm95.3-44.3c-4.6.7-10.1.9-11.5 3.6 3.3-1.8 11.8-.9 11.5-3.6zM113.6 95.8c-5.5.3-8.8 2.1-1.3.7 3.6-1.1 9.4-.6 11.1-2.5-2 1.1-2.9-1.2-3.2-.1l1 .4c-2-.7-4.7.8-7.6 1.5zm152.7-84.4c.3.8-.4 1.2-.7 2.3 2.9-.7 6.3-4.5 10.1-2.9-1-.4-2.9.7-2.9.7 5.8.5 14-1.2 13.3 1.1 2-1.1 6.8-1 8.2-1.7-1.6 0 .7-.4 1-1.5-5.9 1.4-11.4 1.7-15.6 1.2.7-.4 1.6 0 2-1.1-7.2.1-32 4.6-15.4 1.9zm-184 105c1 .4 6.5-1.8 9.4-.6 0-1.9-8.1-.1-9.4.6zM277.6 13.6c-6.8 1-17.9 1.5-17.7 6.2 4-2.3 18.1-5.4 17.7-6.2zm33-4.3c4.2.5 18.9-1.1 7.8-.6-2.6-.5-6.2.6-8.4-1-3.6 1.1-11.4-.3-12.4 3.2 2.6-1.4 17.1.8 13-1.6zm-171.7 99.9c2.9-.7 7.9-2.5 6.9-2.9-1.3.7-5.5.3-5.9 1.4 1 .4-.6.4-1 1.5zm27.5-5.9c-4.6.7-10.7 1.3-13.4 2.8 4.6-.7 9.8-1.7 13.4-2.8zm223-89.8c-1.6 0-2.9-1.2-3.9.3 1.3 1.2 2.3-.3 2.6.5l7.2-.2c-.4-.8-4.3-.5-5.9-.6zm16-2.3c-4.2-.5-6.1-1.3-8.8.2 2.9-.7 7.4.5 8.8-.2zM441 1.6c2-1.1-6.8-.9-9.1-.6-.3-.8-.3-.8-1-.4 0 1.9 6.5.1 10.1 1zm-15.2 10.5c-.5 0-1.2.1-1.9.1 1.2.1 2 .1 1.9-.1zm10.7.6l10.4-.1c-1.9-.8-7.1.2-10.4.1zm-12.6-.5c-.7-.1-1.5-.2-2.3-.3.2.4 1.2.4 2.3.3z"/><path class="st0" d="M421.6 11.9c0-.1-.1-.2 0-.3 4.6.1 8.7-1.2 10.4.4-.8-.3-2.8.2-2 .6 2.6.5 3.6-1.1 6.5.2 1.1-3.5-3.9.3-3.2-2 .3.8 1 .4.7-.4-6.2.6-14.6-.4-17.9 1.5 1.3-.4 3.5-.2 5.5 0zm12.1-4.3c-3.9.3-6.1-1.3-7.8.6 2.3-.3 6.8.9 7.8-.6zm30.4 3.8c-1-.4-9.7-2.2-14-.7 5.3.9 9.1 2.6 14 .7zm1 2.4c-2.9.7-5.5.3-6.8 1 3.2.1 5.8.5 6.8-1zm32.7-10.9c-.6-1.6-14.9-1.1-14.6-.4 4.9.2 11.1-.4 14.6.4zm15.9 1.6c-.4 1.2-11.4-.3-9.1 1.3 1.3-.7 11.6 1.1 9.1-1.3zm2.9 1.2c-1.7 1.9 6.2-.6 6.1 1.3-1.3.7-7.5-.6-4.6.7 6.5.2 22.1.9 21.8.1-1.6 0-5.2 1-5.2-.9 2-1.1 4.6-.7 6.8-1-2.5-2.4-5.2 1-7.5-.6-.6-1.6 4.2.5 3.6-1.1-8.1-.2-15.6-.8-22.4.2 2.6.5 5.8.5 7.8 1.4l-6.4-.1zm24.2 4.5c-9.1 1.3-19.8-1.2-25.7.2 10.8.6 16.9 1.9 25.7-.2zm17-3.9c-4.9-.1-12.6-1.5-15 .8 4.9.1 11.4.3 15-.8zm16.9 0c-1.6-2-15.2-1.9-13.3-1.1 3.3.1 8.8-.2 13.3 1.1zm-5.9 1.4c-.7.4-1.3.7-1.3.7.7-.3 1.6.1 1.3-.7zm1 .4c2.3-.3 6.8.9 8.1.2-2.6-.4-7.1-1.7-8.1-.2zm46.8-3.5c-5.5-1.7-9.3-3.3-13.9-4.6-1 1.5-1.7 1.9-1.1 3.5 6.3-.7 12.4 2.6 15 1.1z"/><g id="XMLID_243_"><path id="XMLID_255_" class="st1" d="M240.9 79.9c-1.6 2-3.4 3.8-5.5 5.4-2.1 1.6-4.2 2.9-6.5 4.1s-4.6 2-6.9 2.7c-2.4.7-4.6 1.1-6.8 1.2-2.7.2-5.6 0-8.6-.7s-5.8-1.9-8.2-3.7c-2.5-1.8-4.6-4.2-6.2-7.2-1.7-3-2.5-6.7-2.6-11.2-.1-3.9.6-7.9 2.2-12s4-7.9 7.1-11.3c3.1-3.5 6.9-6.4 11.3-8.9s9.4-4.1 15-4.9c5.9-.8 10.4-.4 13.4 1 3.1 1.4 5 3.3 5.8 5.7.8 2.4.6 5-.6 7.8s-3.1 5.2-5.7 7.2-5.8 3.3-9.6 3.8c-3.8.6-7.9-.2-12.3-2.2 2.5.5 4.9.3 7.1-.7 2.3-1 4.2-2.3 5.8-4 1.6-1.7 2.9-3.6 3.8-5.6.9-2 1.3-3.9 1.1-5.5-.2-1.7-.9-2.9-2.2-3.8-1.3-.9-3.4-1-6.2-.4-3.8.8-7.2 2.4-10.2 4.7-2.9 2.3-5.4 5-7.5 8.1-2 3.1-3.6 6.4-4.6 10-1.1 3.6-1.6 7.1-1.6 10.4 0 3.6.3 6.7 1 9.3.7 2.6 1.6 4.6 2.8 6.2 1.2 1.6 2.6 2.7 4.2 3.4 1.6.7 3.3 1.1 5.1 1.1 3.2 0 6.8-1 10.9-3 4.1-2 8.1-4.9 11.9-8.6 2.6-2.8 5.1-5.8 7.6-9.1 0 .1.1.2.3.5.2.3.4.6.5 1.1.1.5.1 1 .1 1.6-.1.6-.4 1.2-.9 1.9-.8 1.1-1.6 2.1-2.3 3-.4.9-1.2 1.7-2 2.6z"/><path id="XMLID_253_" class="st1" d="M253.3 70.9l5.9-8.5c.1-.2.4-.5.9-1.2.5-.6 1.1-1.3 1.9-2 .7-.7 1.5-1.3 2.5-1.8.9-.5 1.9-.8 2.9-.7 1.4.1 2.3.4 2.8.9s.9 1.1 1 1.7c.1.8.1 1.8-.2 3.2-.3 1.4-.7 2.8-1.2 4.3s-1 3.1-1.4 4.6c-.5 1.5-.8 2.8-.9 3.8-.5 2.1-.5 3.4.1 3.8.6.4 1.4.2 2.7-.6 1.2-.8 2.6-2 4.2-3.7 1.6-1.7 3.2-3.6 4.8-5.6 0 .1.1.2.3.5.2.3.4.6.5 1.1.1.5.1 1 .1 1.6-.1.6-.4 1.2-.9 1.9-2.1 2.6-4.3 4.8-6.7 6.5s-5.1 2.5-8.3 2.5c-1.5 0-2.9-.4-4.1-1.1-1.2-.7-2-1.9-2.2-3.6 0-.5.1-1.1.2-1.9.1-.8.4-1.7.7-2.7.3-.9.6-1.9.9-2.9.3-1 .6-1.9.8-2.7.4-1.1.4-1.7.2-1.8-.3 0-.6.2-1.1.6-.5.5-1 1-1.5 1.7s-.9 1.2-1.1 1.6c-.7 1.3-1.6 2.8-2.8 4.6-1.2 1.8-2.2 3.4-3 4.8l-.7 2.6c-.9 3.3-1.9 5.4-2.9 6.2-1.1.8-2.4 1.2-4.2 1.1-1.1-.1-2-.5-2.7-1.1-.6-.7-.8-1.7-.5-2.9.4-1.8.8-3.8 1.4-6 .5-2.2 1.1-4.5 1.9-6.9.7-2.4 1.5-4.8 2.3-7.2.8-2.4 1.7-4.6 2.7-6.8.4-.9 1-1.5 2-1.9.9-.3 1.9-.5 2.9-.4 1 .1 1.9.3 2.6.6.7.3 1 .6 1 .9l-3.8 12.9z"/><path id="XMLID_250_" class="st1" d="M305.9 60.3c.3 1.6-.2 2.9-1.6 4.1.6.2 1.1.3 1.5.5.4.2.5.3.5.5-.6 2.8-1.4 5.5-2.3 8-.9 2.6-1.7 5.2-2.3 7.8-.5 2.1-.5 3.1.1 3 .6-.1 1.5-.8 2.8-2.3 1.3-1.4 2.8-3.3 4.6-5.6 1.8-2.3 3.6-4.6 5.5-7.1 0 .1.1.2.3.5.2.3.4.6.6 1.1.1.5.2 1 .1 1.6-.1.6-.4 1.2-1 1.9-1.5 1.8-2.8 3.4-4 4.8-1.1 1.4-2.2 2.7-3.3 3.8-1.1 1.1-2.1 2.2-3.2 3.2s-2.4 2-3.8 2.9c-.8.6-1.6 1-2.5 1.1-.9.1-1.8.1-2.7-.1-.9-.2-1.6-.5-2.3-1-.6-.5-1-1-1.2-1.6-.2-.5-.2-1.1-.2-1.7 0-.6.1-1.2.2-1.9-1.7 1.6-3.5 3-5.4 4.3-2 1.3-3.8 1.9-5.5 1.9-1.7 0-3-.3-4-1s-1.6-1.5-1.9-2.6c-.8-2.6-.7-5.6.1-9 .8-3.5 2.3-6.8 4.3-9.9 2.1-3.1 4.7-5.8 7.9-7.9 3.2-2.1 6.8-3.2 10.8-3.1 1.9 0 3.6.3 5.1.9 1.6.7 2.5 1.6 2.8 2.9zm-12.7 5.4c2-.4 3.5-1 4.6-1.8 1.1-.8 1.8-1.8 2.1-2.9.1-.5-.1-.9-.6-1.5-.5-.5-1.3-.6-2.5-.2-1.7.5-3.3 1.8-4.8 4s-2.9 4.7-4.1 7.3c-1.2 2.7-2.1 5.3-2.7 7.8-.6 2.6-.8 4.4-.6 5.6.1.6.4.8 1.1.7.6-.1 1.4-.5 2.1-1 .8-.6 1.6-1.2 2.5-2 .9-.8 1.6-1.6 2.3-2.4.5-2.1 1.1-4.3 1.8-6.4.7-2.2 1.3-4.2 1.9-6.1-1.3.1-2.4-.3-3.1-1.1z"/><path id="XMLID_248_" class="st1" d="M332.2 41.5c1.8-.1 3.5.2 5 .9s2.4 1.7 2.6 3.2c.2 1.1.1 2-.5 2.8-.6.8-1.4 1.4-2.4 1.9-1.1.5-2.2.7-3.6.8-1.3.1-2.6 0-3.9-.3 2-.4 3.3-1 4-1.9.7-.9 1.1-1.8 1.3-2.6.1-.8-.1-1.4-.5-1.8-.4-.5-.9-.7-1.5-.6-.6 0-1.3.4-2 1.1-.8.7-1.4 1.9-1.9 3.4-.6 1.7-1.2 3.6-1.9 5.5-.7 2-1.3 3.8-1.8 5.5l-6.6 23.8c2.9-.8 5.8-2.3 8.8-4.4 3-2.1 6.1-5.3 9.3-9.6 0 .1.1.2.3.5.2.3.4.6.6 1.1.1.5.2 1 .1 1.6-.1.6-.5 1.3-1.1 2-2.4 3.3-5.3 6-8.8 8-3.4 2-6.8 3.4-10.1 4.2L314.2 99c-.5 1.6-.9 2.9-1.5 3.9-.5 1-1.1 1.8-1.7 2.3-.6.5-1.2.9-1.9 1-.6.1-1.3.2-2 .2-1.5-.1-2.6-.5-3.2-1.4-.6-.8-.6-2-.1-3.5l4.4-14.5c-.8-.4-1.2-.9-1.1-1.6.1-.7.8-1.1 2-1.3l9.6-32.2c1-3.3 2.5-5.9 4.5-7.7 2.3-1.6 5.2-2.6 9-2.7z"/><path id="XMLID_246_" class="st1" d="M350.3 50.2h5.6c.8-.1 1.4 0 1.8.2.4.2.5.5.5.8-.1.3-.3.6-.8.8-.5.3-1.1.4-2 .5h-5.8l-8 28.6c-.5 2.1-.5 3.1.1 3 .6-.1 1.6-.8 2.9-2.3 1.3-1.4 2.9-3.3 4.7-5.6 1.8-2.3 3.7-4.6 5.6-7.1 0 .1.1.2.3.5.2.3.4.6.6 1.1.2.5.2 1 .1 1.6-.1.6-.4 1.2-1 1.9-1.5 1.8-2.8 3.4-4 4.8-1.1 1.4-2.2 2.7-3.3 3.8-1.1 1.1-2.1 2.2-3.2 3.2s-2.4 2-3.8 2.9c-.8.6-1.7.9-2.7 1-1.1.1-2 0-2.9-.3-.9-.3-1.7-.8-2.3-1.5-.6-.7-.9-1.5-.8-2.4.2-1.7.4-3.5.8-5.4.4-1.9.9-3.9 1.5-6.1 1.1-3.7 2.2-7.5 3.3-11.3 1.2-3.8 2.3-7.3 3.3-10.5h-.8c-1.5 0-2.3-.4-2.4-1.1-.1-.8.9-1.2 2.8-1.2h1.1c.7-2.1 1.4-3.9 2-5.4.4-.9 1.1-1.5 2-1.8 1-.3 2-.4 2.9-.4 1 0 1.8.2 2.5.5s1 .6 1 .9l-1.6 6.3z"/><path id="XMLID_244_" class="st1" d="M358.3 85.1c.3.8.8 1.4 1.5 1.8.7.4 1.4.6 2 .6 1.3.1 2.4-.2 3.3-.8.9-.6 1.5-1.2 1.9-1.9.8-1 .9-1.9.3-2.8-.5-.9-1.4-1.8-2.5-2.7-1.1-.9-2.5-1.8-4-2.8-1.5-.9-3-1.9-4.2-2.9-1.3-1-2.3-2.1-3-3.2-.8-1.1-.9-2.4-.6-3.7.8-2.9 2.6-5.3 5.3-7.2 2.7-1.8 6.1-2.8 10.3-2.9 3.8-.1 6.7.4 8.7 1.5 2 1.1 3.3 2.7 4 4.8.5 1.7.2 3.3-.8 4.6-1 1.4-2.3 2.4-4 3.2-1.6.8-3.4 1.1-5.2.9-1.8-.1-3.4-.9-4.6-2.3 2-.4 3.5-1.3 4.6-2.9 1.1-1.5 1.8-3.1 2-4.6.1-1.4-.3-2.2-1-2.4-.8-.2-1.7 0-2.8.5-1.1.5-2.2 1.3-3.3 2.2-1.1.9-2 1.8-2.5 2.5-.8 1.1-1.1 2-.8 2.8.3.8.8 1.6 1.8 2.3.9.7 2 1.4 3.3 2.1 1.3.7 2.5 1.5 3.7 2.3 1.2.8 2.3 1.8 3.2 2.8.9 1.1 1.4 2.3 1.5 3.6.2 2.6-.8 4.9-3.2 6.7-2.4 1.8-5.7 2.8-10.1 2.8-2 0-3.9-.2-5.5-.6-1.7-.4-3-1-4.2-1.8-1.1-.8-1.9-1.7-2.4-2.8-.5-1.1-.5-2.1-.2-3.3.3-1.1 1-2.1 2.1-2.8 1.1-.8 2.3-1.2 3.7-1.4 1.4-.2 2.8-.1 4.3.4s2.7 1.3 3.8 2.6c-2 .4-3.6 1-4.8 1.8-1.5.9-1.9 1.8-1.6 3z"/></g><g id="XMLID_225_"><path id="XMLID_241_" class="st1" d="M404 65.7l1.9-2.1h2.8l3.3-16.7c-3.6 0-6.5 1-8.7 2.9-2.2 1.9-3.3 4.4-3.3 7.5v.6l-5.1 2.5c.5-5.4 2.5-9.3 6.2-11.8s9.3-3.7 16.8-3.7H433l-2.4 7.4h-1.7c.2-.7.3-1.4.3-2.1 0-2.3-3.6-3.4-10.7-3.4h-1.1l-3.3 16.8h11.4l-2.6 2.7c-2.8-.4-5.4-.6-8-.6h-1.3l-1.5 7.7c-1.3 6.5-3.7 11.6-7.4 15.5-3.7 3.9-7.9 5.8-12.8 5.8-2.6 0-5-1-7-3l3.8-3.9c1.4 2.9 3.6 4.3 6.6 4.3 2.8 0 5-1.3 6.6-3.8 1.6-2.5 3-7 4.3-13.4l1.8-9.2h-4z"/><path id="XMLID_238_" class="st1" d="M439.3 84.2c-2.3 0-4.2-.9-5.7-2.7-1.5-1.8-2.3-4-2.3-6.7 0-5 1.9-9.7 5.7-13.9 3.8-4.3 7.9-6.4 12.4-6.4 2.4 0 4.4.9 6 2.6 1.6 1.7 2.4 4 2.4 6.7 0 5.2-1.9 9.9-5.7 14.1-3.8 4.3-8.1 6.3-12.8 6.3zm3-2.2c2.6 0 4.9-1.7 6.8-5 2-3.3 2.9-7.2 2.9-11.6 0-5.8-1.8-8.7-5.3-8.7-2.5 0-4.7 1.7-6.7 5.1-2 3.4-3 7.3-3 11.6 0 5.7 1.8 8.6 5.3 8.6z"/><path id="XMLID_236_" class="st1" d="M464.6 83.9l1.9-8 2.5-12.8c.3-1.3.4-2.4.4-3.3 0-1.5-.5-2.2-1.6-2.2-1.8 0-4.5 2-7.9 5.9l.5-2.3c4-4.3 7.5-6.5 10.5-6.5 2.5 0 3.8 1.4 3.8 4.3 0 1.3-.2 2.7-.5 4.2l-1.3 6.3h.3c2.1-4.4 4.5-7.9 7.4-10.7 2.8-2.8 5.4-4.2 7.8-4.2 1.2 0 2.3.3 3.3.8l-3.5 4.7c-1-.7-1.9-1-2.6-1-3.4 0-7.9 5-13.6 15l-1.9 9.5-5.5.3z"/><path id="XMLID_233_" class="st1" d="M515.6 76.4l-.4 2c-5.5 3.9-10.3 5.8-14.2 5.8-2.5 0-4.5-.9-6-2.6-1.5-1.7-2.3-4-2.3-6.7 0-4.9 1.9-9.5 5.7-13.9 3.8-4.3 7.8-6.5 12.1-6.5 1.6 0 2.8.5 3.8 1.6 1 1 1.4 2.4 1.4 4.1 0 3.3-1.7 6.2-5.1 8.6-3.4 2.4-7.5 3.6-12.2 3.6v1.2c0 5.1 1.9 7.6 5.6 7.6 3 0 7-1.6 11.6-4.8zm-17.3-5.6c3.9-.3 7-1.3 9.2-3 2.2-1.7 3.3-3.9 3.3-6.6 0-2.7-1-4-2.9-4-2.1 0-4.1 1.4-6.1 4.2-2 2.8-3.2 5.9-3.5 9.4z"/><path id="XMLID_231_" class="st1" d="M532.7 84.2l.1-3.6c0-6.9-.6-12.3-1.9-16.3-1.3-4-3-6-5.1-6-2.2 0-4.5 2.1-6.9 6.3l.8-3.9c3.2-4.2 6.1-6.3 8.8-6.3 6.1 0 9.1 7.6 9.1 22.9v1.4l2.1-2.6c6.4-7.7 9.5-13.3 9.5-16.7 0-1.6-.6-3.1-1.7-4.4l5.6-.6c.9 1.3 1.3 2.4 1.3 3.5 0 1.5-.6 3.1-1.8 4.9-1.2 1.8-3.8 5.1-7.8 9.7l-9.4 10.9-2.7.8z"/><path id="XMLID_228_" class="st1" d="M582.4 76.4l-.4 2c-5.5 3.9-10.3 5.8-14.2 5.8-2.5 0-4.5-.9-6-2.6-1.5-1.7-2.3-4-2.3-6.7 0-4.9 1.9-9.5 5.7-13.9 3.8-4.3 7.8-6.5 12.1-6.5 1.6 0 2.8.5 3.8 1.6 1 1 1.4 2.4 1.4 4.1 0 3.3-1.7 6.2-5.1 8.6-3.4 2.4-7.5 3.6-12.2 3.6v1.2c0 5.1 1.9 7.6 5.6 7.6 3 0 6.9-1.6 11.6-4.8zM565 70.8c3.9-.3 7-1.3 9.2-3 2.2-1.7 3.3-3.9 3.3-6.6 0-2.7-1-4-2.9-4-2.1 0-4.1 1.4-6.1 4.2-1.9 2.8-3.1 5.9-3.5 9.4z"/><path id="XMLID_226_" class="st1" d="M590.6 83.9l1.9-8 2.5-12.8c.3-1.3.4-2.4.4-3.3 0-1.5-.5-2.2-1.6-2.2-1.8 0-4.5 2-7.9 5.9l.5-2.3c4-4.3 7.5-6.5 10.5-6.5 2.5 0 3.8 1.4 3.8 4.3 0 1.3-.2 2.7-.5 4.2l-1.3 6.3h.3c2.1-4.4 4.5-7.9 7.4-10.7 2.8-2.8 5.4-4.2 7.8-4.2 1.2 0 2.3.3 3.3.8l-3.5 4.7c-1-.7-1.9-1-2.6-1-3.4 0-7.9 5-13.6 15l-1.9 9.5-5.5.3z"/></g></svg>