<svg version="1.1" id="Layer_1" xmlns="http://www.w3.org/2000/svg" x="0" y="0" viewBox="0 0 630.8 30.9" xml:space="preserve"><style>.st3{fill:#ed207d}</style><path class="st3" d="M630.1 5.7c.9.1.6-1.5.7-1.8-1.5.3-.7 2.2-.7 1.8zm-15.4 3.8l.3-.7-2.3 1.7zm-14.3 0c1.4 2.9 5.2-.5 7.8.6l.4.7 1.2-2.3c-3.2.2-7.3 1.8-9.4 1zm-7.7-6.2c.5 1.1-1.7 1 1.8.3-.2-.1-.2-.2-.3-.3-.4.1-.8.1-1.5 0z"/><path class="st3" d="M594.2 3.4c1.5-.1-1-1 0 0zm-7 .6l2-1c-.4-.7-2.2-.8-1.5-1.3-2.1.6-1.7 1.2-.5 2.3zm-1.9 2.1l1-.4c-.2-.3-.4-.4-1 .4zm3.2-1.3l-2.2.9c.3.5.3 1.4 1-.3-.2.8.3 0 1.2-.6zm1.2.4c1.1.6 2.6 1 .6 2 3.8-.4 3.3-2.4-.6-2zm9.9 7.2l1.5.8 1.3-1c-.6.6-2.9-.7-2.8.2zm-24.9-9.9c-.1.6.7 1.6.8 2.4l1.5-.7c-.7-.4-2.2-.8-2.3-1.7zm.9 2.4l-2.2 1c1.9.2 2.3-.3 2.2-1zm9.3 4.3l3.6-2.1-4.3 2.2zm-18.6-6.8l1.3-1.4-2.3 2.2zm-5.6.3c.9-1.2-1.3-2-.3-2.7-1.5.2-2.8 1.2-4 2.1 1.3-.5 2.6-.4 4.3.6z"/><path class="st3" d="M554.5 3.4c.6-.3 1.3-.8 2-1.3-.7.3-1.3.7-2 1.3zm15.1 2.3c-.2-.4-.5-1.3-1.7-1.7l.9 1.7c.2-.1.5-.1.8 0zm-.8 0c-1-.1-1.6-.1-1.9-.2.2.1.8.1 1.9.2zm1 0h-.2c.1.1.1.2.2 0zm9.3 2c-1.3 1-4 2-1.4 3.4 1-1.1-.5-2 1.4-3.4zm-8.2.1l2.3.4c0-.5-.5-1.1.2-1.6l-2.5 1.2z"/><path class="st3" d="M569.7 8.3l1.2-.5-.9-.1zM558.5 5c-1 .7-2.1.8-3.4.9 1.3.3 2.7.5 4 .5.3-.5.9-1.4-.6-1.4zm5 .5c-.1 0-.2.1-.2.1.1.1.2.2.2-.1zm-20.6.4c.1.1.1.2.2.3v-.3h-.2zm16.5.9c1 .3 1.6-.1 2.2-.6-.8.2-1.6.3-2.4.3-.1.2-.1.4.2.3zm-8.3-2.6c.5.4 1.1.7 1.7.9-.5-.5-1.5-1.3-1.7-.9zm11.8.9c.1 0 .1-.1.2-.1-.3-.3-.3-.1-.2.1z"/><path class="st3" d="M562.9 5.1c-.5.2-.9.7-1.3 1 .6-.1 1.2-.3 1.7-.6-.2 0-.3-.2-.4-.4zm-23.8 11.8c.2-1.6 2.8-3 5.1-1.3 2.2-1.2.8-6.4-1.2-9.3-.1.7-.1 1.3-2.4 2.3.8.9 5.1 2 3.2 3.5-3.1.8-2.5-.6-4-1.4 1.3 2-3.9 2.9-3.2 5.8l2.7-1c.1.3-.9 1-.2 1.4zm8.4-10.5l1-.2c-1.1-.3-1.9-.9-3.3-2.1-1.6.8-1.9 1.4-2 1.9l4.7.2-.4.2zm5.2-.2c-.7 1.7-3 2.5-1.6 4.3 2.8-.1 2-1.4 3.6-2.2-4.5.4 1.3-1-2-1.9.9-.3 1.7-.4 2.4-.5-.8-.2-1.6-.5-2.3-.8l.1.1c.2.2.3.3 0 .2h-.1c.1.4 0 .6-.1.8-1.3-.4-.2-.5.2-.7 0-.1.1-.2.1-.3l-4.5.9c.9.3 2.1.3 4.2.1zm22.6 8.6c-.1-.2-.1-.3-.1-.4-.3.3-.4.4.1.4zm-1.8-1c.3-.2.6-.9 1.7-.8.9.5 0 .8 0 1.4.6-.5 2.3-1.2.2-2.1l-.3.2c-1.8-.6-4.2-2.7-3.8-3 .5 1.7 1 2.8 2.2 4.3zM563 10.4l-3.8.8 1.9 1.5-.1-.9c2.2.4 1.7-.7 2-1.4zm-20.6-5.3l.5-1.8-2.2 2.5zm-4.9.2l.2-1.6-1.3 1zM261.7 24.9l-1.1.4c.6-.1.9-.2 1.1-.4zm8 .1l.2-.8c-.3.5-.5.8-.2.8zM417.5 5.5c-1.6-1.5-3.4-3.8-3.2-2l.5 1.7c1.1-.3 2-.1 2.7.3zm-82.2 10.3l.5.5c.4-.6.8-1.1 1.1-1.7-.5.5-1 .8-1.6 1.2zm-1.1 7.2l-2.1-1.1c.4.4 1.1.8 2.1 1.1zm-116.1 3.8l-1.3 1.8c2-.1 1.1-1 1.3-1.8zM487.5 5.9c-1.4-.7-2.5-1-3.5-1 1.7 1 3 2.5 3.5 1zm-222.6.6c-.7.3-1 .7-.9 1.1.6-.3 1-.7.9-1.1zM480 4.9c.2.2.5.3.7.4 1-.3 2-.5 3.3-.4-1.2-.8-2.6-1.2-4 0zM59.6 25.3c-.1-.1-.3-.1-.4-.2 0 .3.2.3.4.2zM13.4 7.8c.5-.1 1.2-.1 1.9-.1-.3-.1-.9-.1-1.9.1zm504.5-3.3c1-.1.1-.2 0 0zm5 6.9c-.2.2-.4.4-.4.8.1-.4.2-.6.4-.8zm-53.2 4.3c-.1 0-.1 0 0 0 .2.3.1.3 0 0zm49.7-10.4c-.4-.2-.8-.4-1.3-.5.2.1.6.3 1.3.5zm-.2-.8c.4.1.6.1.9.2.2-.3 0-.5-.9-.2zm-2.8.1c.6 0 1.1.1 1.7.2-.2-.1-.3-.2-.2-.3-.3.1-.8.1-1.5.1zM144.5 20.7l-.2-.2c-1.1.7-.6.6.2.2zm246 2.8l.1-.1s-.1 0-.2-.1l.1.2z"/><path class="st3" d="M386.8 24.8c1.6-2.2 2.5-1.9 3.7-1.4l-1.2-5-2.5 6.4z"/><path class="st3" d="M242.6 25.4l2.6 1.6c-3.2 2.6-5.4 1.7-3 3.9.4-5.4 10.2-.6 10.5-6l1.7 1.1c-.5-.1-.6.3-1.1.2 3.4 2.6 2.5-3.9 6.8-3.2 1.5.4 2.6 1.2 1.5 1.8l3.4-1.3c1 .1.7 1-.2.9l5.1-.4v.2c.7-.9 2.4-2.2 3.2-2.7 1.3.8-.7.6-.3 1.3l2.8-1.3c1.2 1.4-1.2 2.8-3.1 2.6 2.6 5.4 2.3-1.4 8.1 1.8l-2.7.7c1.7 3.1 3.8 2 6.8 3.9-.7-1-6.1-4.8-3-6.2.9.4 2 .6 3.7-.5 0 1.9 1.6 1.5 3.7 1.3l-.1 2.6c2.2-.7 2-2 3.3-3.2 2.4.3 2.9 2.2 3.5 3.9 3.9.4-2.7-3.2 1.9-3.7 3.3 1 5.5-.1 9.4-1.6 2.3.9-.4 1.6.4 2.3l2-2c.5 0 .3.7.3 1 1.7-.8.1-2.6 2.8-3.3.7-2.8 5.5 4.1 8.8.9.8.7-.4 1.6-.1 2.6 4.5-2.1 3.9-1.5 7.6-4.4l3.2 1.7c-2.3-1.9.6-4.2 3.3-6.1-.8-.9-1.5-1.7-2-2.1l4.2-1.4c.5.4.1 1.3-.6 2.4.3-.2.6-.4.8-.6 1.5.9.7 2.4-.3 3.9-.5-.5-1-1-1.5-1.6-1 1.6-2 3.3-1.8 4.8.3-.3.8-.5 1.4-.7-.3.4-.4.8-.3 1.1.1.3.6-.3 1.3-.9l.9 2.9.2-1.1 5.4 1.8c3.9-2.9 7.3-7.1 13.5-8.3-1.5 2.1-.3 3.4-.4 5.9-1.7-2.6-4.8 1.1-8 .6 1.7.3 1.3 1.5.9 1.9l5.7-2.4c-.1 2 1.2 1.5 2.7 2.4-1.1-4 4.3-2.7 6.6-3.9.1 1.3-.4 2.7-3.3 2.4 3.1 3 4-4.7 7.1-2.1-.7 0-1.1-.2-1.3.5 1.6-1.2 5.6-.2 4.6.9h-.7c4.6.5 14 0 14.7-3.4 0 .4-.6 4.1-.9 4.8l8.2-11.4c-.7 2.9 2.1 9.9-1.8 11.5 1.1.4 2.5.9 4.8-.1-.7-.4-1.9-4.2-.8-4.5 2.8 3.3 1.9 1.7 5.4 4.5-1.1-.6.1-5.2 1.9-5.1-.3.7.1 4.5-.5 5l4.4-4.5c-1.1.8-.2 3.8.8 5.1-.5-.9 3.8.1 5-.4l-1.9-1c5 .7 4.9-6.3 9.9-6.1-.6.9-1.5 5.7 1 6.3 1.2-2.3 5.1-11.1 9.5-12.9l.8 1.3 3.4-1.5c-2.1 3.5-7.9 10.8-11.1 13.6 1.9 1 .5 1.6 3.3 1.4 1 1.2-1.5 1.9-2.3 1.9l6.5.8c-.3-2.7 5-2.7 4.7-4.9l-7.1 2.8c-.3-2.7 4.1-7.6 8.7-7.2 1.2 1.1-.9 4.8-.8 5.7.6-.9 4.4-1.8 4.8-1.1l-2 1.4c2.6 1 4.2-3.6 7.3-1 1.1.2 3.2 3.5 3.4 1.9-1.7-3.1-2.1-12.6-.9-14.9.4.2 5.6 2.9 6.8 4.4 1.7 2.4-2.6 5.7-1.1 7.8.1-.7 1-1.6 1.4-1.9 1.1.6-.5 2.3 2 1.9.4-2.7 4.9.2 1.1-2.3 2.4-.8 2.5.6 5.3.4-.9-1.8 2.5-6 4.9-6.8-.1.7.4 1.6.7 2 4.9.2 7.5 1.5 12 1.5.4.7 2.6 1.5 1.7 2.6.7-.5 1.3-1.4 2.6-1.5 2.7 2.4-3.1.4-1.1 3.2.2-1.6 3.6-2.2 5.6-3.2-.6-2.4-4.6-.5-6.6.5 0-3.4 3.5-6.9 8.2-8.5 3.8-.8 1.6 2.2 2.3 1.7 7.1.6 6-5.9 11.9-3.5 2.3 2.2.1 4.3.6 5.8-3.1.8-4.7-1.4-6.8-1.3l2.6 1c-1 .7-3 1.3-4.1.6 2 1.9 11.9.4 17.4 2.2 1-.7 2.6-1.5 1.9-2.3l-1.7.3c-1.6-1.7 3.2-2.4 1.1-3.2 2.3-1.2 4.9-3.1 8.2-2.2l.6 2.5c-.1-.7-2.1-1.5-3-.7 1.4-1.1 5 3.3 6.5.1l-2.3-1.7c2.3-1.2 5.2-3.8 8.1-3.1-1.3-2.4-.7.3-2.7-2.6 1.8 3.5-7.4-.1-4.5 3.6-2.1-3.3-3.6-1.4-6.4-4.2.1.8 1 1.5-1.4 1.1-.1.2-.4.5-.5.7-.1 0-.1 0-.2-.1l.1.1c-.1.1-.1.1 0 0 .6.4 1 .8 1.2 1.2-1.2 1.9-5.1 1.8-6.4 2.8-1.4-.4.6-.9-.2-1.8l-1.9 1.4c-.2-1.8-3.8-3-.4-4l-3.5.3c-1.8-1-4.3-1.4-5.8-.7-1.4-.4-3.6 2-2.4.6L495.9 6v-.4c-4.7-.2-9.7 3-15.1-.3-1.6.5-3.2 1-5.9.5l-.5-1.6c-2 .5-6.1-1.6-7 .1-2.2-4.2-9.9-.9-13.5-1.7l-.1 2c-2.5-.1-4.8.5-7.9 1.3l.2 1.8c-2.6 1.5-6.8-1.3-11-1.1.3-.7 1.3-.5 2.1-.1-5-4.1-10.5 2.9-15.1 0-1.1.7-1.9.4-2.7 0 .1 0 .2 0 .3-.1h-.5c-.5-.3-1-.7-1.6-1 .5.4.9.8 1.3 1-.9 0-2.2.3-3.5.7l-.6-1.9c-.1 0-.2 0-.3.1-1.3-.7-1 .9-.3 2.4-.7.3-1.2.7-1.7 1.2-1-3.1-3.4 1-4.8-2.3-.9 1.6-6.5 1.2-7.2 4.6 0-.4-.4-.7.3-.7-1.4-.4-2.9-.8-4.2.2l-.6-2.4-3.2 3.3c-1.9-1.5-2.7-2.4-.8-4.2-4.6 2.9-3.7 1.1-7.6 4l.2-1.6c-1.4.1-3.6 2.2-4.5.9-3.1-3-15.5-.4-23.5-3.2 1.6 4.7-3.7-2.1-4 1.5-.5-1.1-1.6-1.7-.3-2.7-4.1 1.1-6.1-1.7-9 1.3-.5-1.1.9-1.6.5-2.3-.3.2-1.3 1-1.7.3-.4-.7.6-.9 1.2-1.4-4.2.2-4.6 3.6-4.9 6.8-2.1-1.5-3.2-1.3-4.7.8-.7-1-2-2.1.6-2.5-1.5-.2-8.9-1.5-9.1 1-.5-.6-2-.2-2.4.1-3.3-.2-3.6-.4-6.8-.1l.9.4c-1.3 3.1-2.7.7-5.3 1.1l.1-.3c-5.9-2.2-2.6 1.1-8.4-1.5l.3 1.9c-.5 4.1-5.2-2.4-8.6-.9l1.2 1.1c-1.9 1.4-5.2-5.6-7.1-6.1-.4-.4.6-.6 1.2-.8-4.9-2.4-.6 2.5-4.3 3.1-.7-1.4.9-3.4-1.6-3.7-1.2-1.1-7.1 4.4-10.5 1.8.7 1 1.5 2.1-.2 2.9-2.6.4-7-3.9-9.4-.7-.3-.3-.5-.6-.5-.8-2 .8-6.4 1.4-7.6 3.2-1.7-6.9-12.2 3-12.2-3.1l-6.1.3.2-.6c-3.9-.4-5.3 1.1-6.7 2.5-.9-.4-.2-1-.2-1.3-5.7-1.2-6.3-1-11 2.1l-.5-2c-1.3 1.2-8.2-3.1-13.8-.8.1-.2.2-.6.6-.9-6.3 2.3-15.1-5.5-17.4 1.7l-4.1 1.8c5.4.6-.8 3.1 1.4 4.3-2.1.4-5.5-2.2-2.9-2.5l.4.4c1-3.8-6.7-1.3-6.5-3.9-10.6.2-20.9-1.9-30.8-2.1l1.1 2.9-3.5-.2c-.9-.7-1.2-2.3 1.2-2.2-1.3-1.7-4.1 1.4-4.2 2-4.8-1.2 1.9-3.4.4-3.5l-2 .2.5.3c-1.6 1.2-1.8 2.5-4.7 2.3-1.9-.6-1-1.8-1.7-1.9 0-.2-.2-.3-1.1-.1l-4.3-.3 1.7 2.3c-1.9 1.1-4.1-.1-2.1 2.5-2.9-4-16.2-1.4-18-2.7-2.7 1.7-5.4 1.7-8.7 1.5.8.5 1.3 3.1-1.5 2.8 1-5.4-5.2-2.3-7.5-6.2 2.1 2.6-8.1.6-4.9 4.3-2.4-.4-.1-2-1.9-3.3C79.8 9.9 73 6.4 66 7.1c-.1.7 1 1.8-.5 2.9l-3.7-3.5c-1.4.3-1.3 4.1-3.8 1.6.4.6.9 1.5 0 1.7-13.7-3.4-28 2.8-41.9-3.6 1.9 1.4.6 1.5-.8 1.5.9.3 0 1.7.2 2.7L9.7 7.7c-1.1 2.6-6.2.2-6.8 2.7l1.8-.4c-2.5 3 3.4 6.6 3.1 10.5 2.7-3.4 7.2 5 11.7.2 1 .8-.8 1.2-.3 2.1 1.1-1.6 2.5-2 5.1-1.2l-.3.4c7.2-.4 10.3 1.2 18.3 2.3l-.6-1.9c1.7.3 2.1.8 2.9 1.3 2-2.9-4.9-.2-3.1-3.3 2.3 3.9 12.2.1 13.8 4.4 2.7 0-.8-2.2 1.9-2.2l.7 1.2.7-1.5c1.7.3 2.6 1.7 2.7 2.7-.4-.1-1.2.3-1.7.4 2.3 1.4 6.4-.5 7.2 0l-2.6-.7c7.3-1.1 16.2.4 23.2-2l-.5-.9c5.4-1.7 4.3 1 10.2.2l-.2.2c1.2-.9 2.8-1.3 4.4-1.2-1.5 1 2.8 2 .8 3.2 5.8-1.8 2.9-1.4 6.7-4.7l.9 1.5c1.3-1.3 1.4-2 4.4-2.4-2.4 1.3 1.9 2.3-.8 3.9 6.2 3.2 9.2-3.3 12 1.5 2.8-4.1-5.3-2.3-3.8-3.2-1.3-1.3 2.3-3.1 4.3-2.7 2 .1 3.4 5.3 8.3 5.2-.5 0-.5.3-1 .3 1.9 1 3.6-1.4 5.9.3 1.3-2.5 3 .1 3.3-3l-4.6.7c2.6-.8 5-4.5 9.3-2.7-.3.6-1.6 1.5-2.5 1.9 1.2.9 2.4-.6 3.7.3-.4 3.2-5.5.7-8.3 3.1 1.3 1.3 5.2-2.3 3.8 1.1 2-4.4 4.9.6 8.3-2.8l-.2 1.9c.5-.3 1.6-1.2 2.6-1.1l-1.8 2.5c2.7-2.1 5.2 1.8 7.9.7-5.5.1-1.2-2.3-3.5-3.7 6.7-2.5 3.9 5 11.4 4.1-1 .3-3.8-1.1-2.2-2 1.4.4 3.3 1.1 4.2 2.1 5-.4-.8-2 1.4-3.1 1.7 2.3 2.5-.9 4.6-1.7v1.9c5.7 1.2 1.5-4 6.6-2.5l-2.2 2.7 2.7-.7-.6 2.2c2.9-1.6 3.8-1.2 6.7-.6-.7-1.4.4-3.5 2.9-3.6 1.7 1.1-1 1.8 2.6 1.6-.8 1.2-1.7 2.7-3.2.9-.2.6-.8 1.2-1 1.8 1.9 1.3 4.7.3 6 .3-.5-.1-1.1-.2-1.4-.5l5.2-2.7c.8.7.2 1.3-.5 1.9 1.1-.2 1.8-1.1 3.3-1.3-.4 1.6-.3 3.2-2.5 3.9l4.9-1.7c.3.7 2.5 1.9 1.9 2.5 2.7.9 6.7-3 10.4-1.8.2-.3.6-.6 1.3-.8 3.4.4 6.4 2.3 10.5.1l2.3 2.8c3.2-.6-3.1-3.5 2.2-4.6 3.7-.9 1.4 2.4 2.7 3.2 1.9-1.4 5.1-4.3 8.5-2-1.2.4-2 0-3.1.2zm39.1-1.2c-.8.4-2.3 1.7-2.8.5.8-2.2 1.5-1.1 2.8-.5zm59.4-4.7c-.6.6-1.4.3-2.4-.4.7-.1 1.5-.1 2.4.4zM506.5 6.1s0 .1 0 0c-1.8-.7-1.2-.4 0 0zm3.5.8c.4-.3.3-.5.2-.8-.2.5-1 .5-1.9.4.2.5.7.9 1.7.4zm-376.6.8l.7.5c-1.5.6-1.1.1-.7-.5z"/><path class="st3" d="M334.3 22.2c-.2-.3-.3-.7-.3-1-.3.3-.3.6.3 1zm-116 4.2h-.1c-.1.1-.1.2-.1.3l.2-.3zm237.4-3.1c-.7-.3-1.1-.6-1.4-1 0 .5.3.9 1.4 1zm72.9-19.6l-2.2.5c1.1-.1 1.5.3 2 .6-.1-.5-.5-1.1.2-1.1zm19.5 11.9c.3-.2.7 0 1-.3l-.1-.9c-1.4.1-2.3.8-.9 1.2zm-17.4-5.5c.2 1.6 1.6 1.1 3.2.8h-.3c.4-2.3-1.3-1.6-2.9-.8zm3.5.7c.5-.1 1-.1 1.5 0 .1-1-.6-.2-1.5 0zm-19.7-4.9c.7.4.5-2.1.9-1.4.8-2.1-5 2.5-.9 1.4zm17.5 9.5l-.6-2-.9 1.6zM519.5 14l2.5.6c0-.3.3-.5.7-.7-1.5-.1-3.2-.5-3.2.1zm3.2-.2c.8 0 1.6 0 2-.3-.4 0-1.3.1-2 .3zm5.8 2.2l-.7-.4-1.8-.1zm-36-2.4l-2.7.6c-.3.7.5 1.1 1.5.8.6-.5 1.6-.8 1.2-1.4zm8.3 5.5c-.7-.4-.8-.9-1.2-1.5l-.1 2.5 1.3-1zm-8 .5c-.3.7-4 2-.5 1.8.3-.6 3-1.2.5-1.8zm-41.3-3.1h.6l-.1-4.1zM415 26.2c3.3 1 .8-2.5 3.7-1.3.8-1-2.4-1-1.6-1.8-2 1-3 .5-2.1 3.1zm2.1-3.1c.3-.2.6-.4 1-.6-.6.3-.8.4-1 .6zM5.8 5.6l-2.1-.8L5 6.2zM1.7 8.7l-.4-2.6L0 8.4c.5-.1 1.4-.3 1.7.3zm285.8 20.7l.2-.6c-.3-.7-.8-.7-1.8-.8l1.6 1.4zm-28.4-1.9h.5l-.9-2.3zm-23.8 3c1 .1 2.1-.4 3.1-.3-2.1.4-3.4-2.7-3.1.3z"/></svg>